<?xml version="1.0" encoding="utf-8"?>
<!-- Generator: Adobe Illustrator 27.5.0, SVG Export Plug-In . SVG Version: 6.00 Build 0)  -->
<svg version="1.1" xmlns="http://www.w3.org/2000/svg" xmlns:xlink="http://www.w3.org/1999/xlink" x="0px" y="0px"
	 viewBox="0 0 500 500" style="enable-background:new 0 0 500 500;" xml:space="preserve">
<g id="BACKGROUND">
	<rect style="fill:#FFF9F3;" width="500" height="500"/>
</g>
<g id="OBJECTS">
	<g>
		<path style="fill:#F8EBDC;" d="M500,500l-0.111-126.555c1.001-1.87-5.098-6.408-5.098-6.408c-0.61,1.793-8.236,5.602-8.236,5.602
			c0.572-1.069-1.949-2.884-1.949-2.884c-0.619,1.158-6.711,2.753-6.711,2.753c-0.274-2.098-4.773-5.437-4.773-5.437
			c-2.809,1.986-14.364,4.655-14.364,4.655c-0.504-1.017-5.726-3.656-5.726-3.656c-3.446,1.872-15.533,4.214-15.533,4.214
			c1.001-1.87-2.974-6.189-2.974-6.189c-0.61,1.793-8.236,5.602-8.236,5.602c0.572-1.068-1.949-2.884-1.949-2.884
			c-0.619,1.158-6.711,2.753-6.711,2.753c-0.274-2.098-4.773-5.437-4.773-5.437c-2.809,1.986-14.363,4.655-14.363,4.655
			c-0.504-1.017-5.726-3.656-5.726-3.656c-3.446,1.872-20.288,4.082-20.288,4.082c0.557-1.882-4.431-6.13-4.431-6.13
			c-0.185,1.8-6.896,5.723-6.896,5.723c0.318-1.076-2.627-2.848-2.627-2.848c-0.345,1.165-6.048,2.855-6.048,2.855
			c-0.77-2.089-6.049-5.351-6.049-5.351c-2.334,2.027-13.237,4.875-13.237,4.875c-0.743-1.007-6.579-3.558-6.579-3.558
			c-2.997,1.924-14.508,4.454-14.508,4.454c0.557-1.882-4.431-6.13-4.431-6.13c-0.185,1.8-6.896,5.723-6.896,5.723
			c0.318-1.076-2.627-2.848-2.627-2.848c-0.345,1.165-6.048,2.855-6.048,2.855c-0.77-2.089-6.049-5.351-6.049-5.351
			c-2.334,2.027-13.236,4.875-13.236,4.875c-0.743-1.007-6.579-3.558-6.579-3.558c-2.997,1.924-21.517,4.917-21.517,4.917
			c0.446-1.884-4.79-6.112-4.79-6.112c-0.08,1.8-6.559,5.75-6.559,5.75c0.255-1.077-2.794-2.837-2.794-2.837
			c-0.276,1.167-5.879,2.878-5.879,2.878c-0.892-2.086-6.363-5.326-6.363-5.326c-2.215,2.036-12.949,4.927-12.949,4.927
			c-0.802-1.004-6.787-3.531-6.787-3.531c-2.884,1.935-14.244,4.511-14.244,4.511c0.446-1.884-4.79-6.112-4.79-6.112
			c-0.08,1.8-6.559,5.75-6.559,5.75c0.255-1.077-2.794-2.837-2.794-2.837c-0.276,1.167-5.879,2.878-5.879,2.878
			c-0.892-2.086-6.363-5.326-6.363-5.326c-2.215,2.036-12.949,4.927-12.949,4.927c-0.802-1.004-6.788-3.531-6.788-3.531
			c-2.884,1.936-19.024,4.475-19.024,4.475c0-1.888-6.226-6.023-6.226-6.023c0.346,1.798-5.188,5.844-5.188,5.844
			c0-1.079-3.459-2.787-3.459-2.787c0,1.169-5.188,2.967-5.188,2.967c-1.383-2.068-7.609-5.214-7.609-5.214
			c-1.729,2.068-11.76,5.125-11.76,5.125c-1.038-0.989-7.609-3.416-7.609-3.416c-2.421,1.978-13.151,4.73-13.151,4.73
			c0-1.888-6.226-6.024-6.226-6.024c0.346,1.798-5.188,5.844-5.188,5.844c0-1.079-3.459-2.787-3.459-2.787
			c0,1.169-5.188,2.967-5.188,2.967c-1.383-2.068-7.609-5.214-7.609-5.214c-1.729,2.068-11.76,5.125-11.76,5.125
			c-1.038-0.989-7.609-3.416-7.609-3.416C9.562,371.893,0,374.572,0,374.572V500H500z"/>
		<g>
			<path style="fill:#F8EBDC;" d="M26.603,121.969h143.112c0,0,1.4-9.448-6.998-8.398c0,0-1.4-13.996-17.845-10.497
				c0,0,4.199-26.943-29.742-23.094c0,0-10.147-16.446-24.144-12.947C76.99,70.533,70.341,88.728,70.341,88.728
				s-20.994-2.799-22.744,19.595C47.597,108.323,28.352,106.573,26.603,121.969z"/>
			<path style="fill:#F8EBDC;" d="M299.986,88.419h171.537c0,0,1.678-7.457-8.388-6.629c0,0-1.678-11.048-21.39-8.286
				c0,0,5.033-21.267-35.65-18.229c0,0-12.163-12.981-28.939-10.219c-16.776,2.762-24.745,17.124-24.745,17.124
				s-25.164-2.21-27.261,15.467C325.15,77.647,302.083,76.266,299.986,88.419z"/>
			<path style="fill:#F8EBDC;" d="M49.453,199.003h59.538c0,0,0.582-2.588-2.911-2.301c0,0-0.582-3.835-7.424-2.876
				c0,0,1.747-7.381-12.373-6.327c0,0-4.222-4.505-10.044-3.547c-5.823,0.959-8.589,5.943-8.589,5.943s-8.734-0.767-9.462,5.368
				C58.187,195.265,50.181,194.785,49.453,199.003z"/>
			<path style="fill:#F8EBDC;" d="M441.981,193.945c1.199-17.074-15.593-14.939-15.593-14.939s-4.558-13.872-14.154-16.54
				c-9.596-2.668-16.552,9.871-16.552,9.871c-23.269-2.934-20.409,13.531-20.409,13.531c-11.275-2.668-11.548,8.337-11.548,8.337
				L441.981,193.945z"/>
		</g>
	</g>
	<g>
		<g>
			<g>
				<path style="fill:#FFC834;" d="M377.237,456.22c0,0,7.419,0.142,5.867-4.71c0,0,4.746-0.683,3.817-4.736
					c0,0,5.043-1.14,3.642-4.676c0,0,5.133-3.099,2.008-7.874C392.571,434.225,367.176,428.54,377.237,456.22z"/>
				<path style="fill:#FFC834;" d="M272.233,386.546c0,0-1.212-9.87,4.053-7.513c0,0,0.066-8.364,4.56-5.616
					c0,0-1.064-10.061,6.536-6.305c0,0,21.601,11.842,5.272,23.515C276.324,402.299,272.233,386.546,272.233,386.546z"/>
				<path style="fill:#FFC834;" d="M392.451,435.422c0,0-2.232,7.847-7.958,2.109c0,0-5.612,6.814-10.043-0.231
					c0,0-4.486,6.888-10.478-0.999c0,0-3.506,6.486-9.549,0.433c0,0-2.807,7.174-7.902,0.391c0,0-4.365,5.092-7.745-0.145
					c0,0-2.131,5.676-6.362,0.291c0,0-4.943,5.711-7.823,0.123c0,0-1.985,5.533-5.71-0.239c0,0-3.998,7.411-8.183,1.224
					c0,0-3.263,4.78-7.495-0.686c0,0-2.188,5.957-6.645,0.273c0,0-4.501,4.54-7.506-0.666c0,0-7.626-1.215-0.787-8.208
					c0,0-6.916-5.486,0.046-10.046c0,0-6.969-4.358,0.806-10.494c0,0-6.549-3.387-0.609-9.54c0,0-7.224-2.674-0.536-7.893
					c0,0-5.171-4.27,0.002-7.746c0,0-5.714-2.027-0.408-6.356c0,0-8.297-5.68-0.184-9.908c0,0,2.633-7.966,7.874-0.02
					c0,0,5.612-6.814,10.043,0.231c0,0,4.486-6.888,10.478,0.999c0,0,3.506-6.486,9.549-0.433c0,0,2.807-7.173,7.902-0.391
					c0,0,4.365-5.092,7.745,0.145c0,0,2.131-5.676,6.362-0.291c0,0,4.943-5.711,7.823-0.123c0,0,1.985-5.533,5.71,0.239
					c0,0,3.998-7.411,8.184-1.224c0,0,3.263-4.78,7.495,0.686c0,0,2.188-5.957,6.645-0.273c0,0,4.501-4.54,7.506,0.666
					c0,0,7.626,1.215,0.787,8.208c0,0,6.916,5.486-0.046,10.046c0,0,6.969,4.359-0.806,10.494c0,0,6.549,3.387,0.609,9.54
					c0,0,7.224,2.674,0.536,7.893c0,0,5.171,4.27-0.003,7.746c0,0,5.714,2.027,0.408,6.356
					C392.184,427.603,397.984,432.44,392.451,435.422z"/>
				<path style="fill:#FFC834;" d="M376.267,456.85c0,0-2.232,7.847-7.957,2.109c0,0-5.612,6.814-10.043-0.231
					c0,0-4.486,6.888-10.478-0.999c0,0-3.506,6.486-9.549,0.433c0,0-2.806,7.173-7.901,0.391c0,0-4.365,5.092-7.745-0.145
					c0,0-2.131,5.676-6.362,0.291c0,0-4.943,5.711-7.823,0.123c0,0-1.985,5.533-5.71-0.239c0,0-3.998,7.411-8.183,1.224
					c0,0-3.263,4.78-7.495-0.686c0,0-2.188,5.957-6.645,0.273c0,0-4.501,4.54-7.506-0.666c0,0-7.626-1.215-0.787-8.208
					c0,0-6.916-5.486,0.046-10.046c0,0-6.969-4.358,0.806-10.494c0,0-6.549-3.387-0.609-9.54c0,0-7.224-2.674-0.536-7.893
					c0,0-5.171-4.27,0.003-7.746c0,0-5.714-2.027-0.408-6.356c0,0-8.297-5.68-0.184-9.908c0,0,2.633-7.967,7.874-0.021
					c0,0,5.612-6.814,10.043,0.231c0,0,4.486-6.888,10.478,0.999c0,0,3.506-6.486,9.549-0.433c0,0,2.807-7.173,7.902-0.391
					c0,0,4.365-5.092,7.745,0.145c0,0,2.131-5.676,6.362-0.291c0,0,4.943-5.711,7.823-0.123c0,0,1.985-5.533,5.71,0.239
					c0,0,3.998-7.411,8.183-1.224c0,0,3.263-4.78,7.495,0.686c0,0,2.188-5.957,6.645-0.273c0,0,4.501-4.539,7.506,0.666
					c0,0,7.626,1.215,0.787,8.208c0,0,6.916,5.486-0.046,10.046c0,0,6.969,4.358-0.806,10.494c0,0,6.549,3.387,0.609,9.54
					c0,0,7.224,2.674,0.536,7.893c0,0,5.171,4.27-0.002,7.746c0,0,5.714,2.027,0.408,6.356
					C376,449.03,381.801,453.867,376.267,456.85z"/>
				<path style="fill:none;stroke:#0D3A4A;stroke-width:0.5;stroke-linecap:round;stroke-linejoin:round;stroke-miterlimit:10;" d="
					M376.267,456.85c5.534-2.983-0.267-7.82-0.267-7.82c5.307-4.329-0.408-6.356-0.408-6.356c5.174-3.476,0.002-7.746,0.002-7.746
					c6.687-5.219-0.536-7.893-0.536-7.893c5.94-6.153-0.609-9.54-0.609-9.54c7.775-6.136,0.806-10.494,0.806-10.494
					s3.958-2.105,3.103-4.791"/>
				<path style="fill:none;stroke:#0D3A4A;stroke-width:0.5;stroke-linecap:round;stroke-linejoin:round;stroke-miterlimit:10;" d="
					M324.789,389.067c0,0,2.131-5.676,6.362-0.291c0,0,4.943-5.711,7.823-0.123c0,0,1.985-5.533,5.71,0.239
					c0,0,3.998-7.411,8.183-1.224c0,0,3.263-4.78,7.495,0.686c0,0,2.188-5.957,6.645-0.273c0,0,4.501-4.539,7.506,0.666
					c0,0,7.626,1.215,0.787,8.208"/>
				<path style="fill:none;stroke:#0D3A4A;stroke-width:0.5;stroke-linecap:round;stroke-linejoin:round;stroke-miterlimit:10;" d="
					M271.382,398.447c0,0-8.297-5.68-0.184-9.908c0,0,2.633-7.967,7.874-0.021c0,0,5.612-6.814,10.043,0.231
					c0,0,4.486-6.888,10.478,0.999c0,0,3.506-6.486,9.549-0.433c0,0,2.807-7.173,7.902-0.391c0,0,1.972-2.301,4.292-2.219"/>
				<path style="fill:none;stroke:#0D3A4A;stroke-width:0.5;stroke-linecap:round;stroke-linejoin:round;stroke-miterlimit:10;" d="
					M390.697,367.32c0,0-4.164-1.177-4.325,5.323c0,0-5.075-0.239-4.414,4.392c0,0-4.403,0.598-3.584,4.757
					c0,0-4.648-1.253-3.86,6.955"/>
				<path style="fill:none;stroke:#0D3A4A;stroke-width:0.5;stroke-linecap:round;stroke-linejoin:round;stroke-miterlimit:10;" d="
					M287.745,410.881c0,0-4.962,6.007,2.66,5.56c0,0-1.535,4.858,4.996,4.019"/>
				<path style="fill:none;stroke:#0D3A4A;stroke-width:0.5;stroke-linecap:round;stroke-linejoin:round;stroke-miterlimit:10;" d="
					M320.818,412.82c0,0,4.171-7.475,9.022-0.151c0,0,1.212-5.282,5.626-2.082c0,0-0.386-5.735,4.7-3.4"/>
				<path style="fill:none;stroke:#0D3A4A;stroke-width:0.5;stroke-linecap:round;stroke-linejoin:round;stroke-miterlimit:10;" d="
					M343.447,373.418c0,0,7.512-4.104,7.715,4.678c0,0,3.84-3.825,5.871,1.235c0,0,2.729-5.059,5.789-0.374"/>
				<path style="fill:none;stroke:#0D3A4A;stroke-width:0.5;stroke-linecap:round;stroke-linejoin:round;stroke-miterlimit:10;" d="
					M357.388,431.421c0,0,1.298,6.341-2.965,5.315c0,0,1.764,3.199-2.886,3.171"/>
				<path style="fill:none;stroke:#0D3A4A;stroke-width:0.5;stroke-linecap:round;stroke-linejoin:round;stroke-miterlimit:10;" d="
					M292.952,378.826c0,0,3.877-5.183,5.942-1.316c0,0,1.218-3.444,4.288,0.049"/>
				<path style="fill:none;stroke:#0D3A4A;stroke-width:0.5;stroke-linecap:round;stroke-linejoin:round;stroke-miterlimit:10;" d="
					M307.823,433.748c0,0-1.114,4.721,4.243,3.517c0,0-0.697,3.948,4.585,4.022c0,0-0.948,2.896,3.575,2.859"/>
				<path style="fill:none;stroke:#0D3A4A;stroke-width:0.5;stroke-linecap:round;stroke-linejoin:round;stroke-miterlimit:10;" d="
					M387.114,430.405c0,0,4.143-2.522-0.476-5.491c0,0,3.3-2.276-0.357-6.089c0,0,2.728-1.358-0.475-4.553"/>
				<path style="fill:none;stroke:#0D3A4A;stroke-width:0.5;stroke-linecap:round;stroke-linejoin:round;stroke-miterlimit:10;" d="
					M272.222,382.362c0,0-0.089-5.322,4.065-3.329c0,0-0.613-7.903,4.56-5.616c0,0-1.828-9.872,6.536-6.305
					c0,0,2.795-7.552,7.874-0.02c0,0,5.687-6.702,10.043,0.231c0,0,4.667-7.018,10.478,0.999"/>
			</g>
			<g>
				<path style="fill:#FFC834;" d="M441.603,332.36c0,0,6.597-3.398,2.927-6.931c0,0,3.853-2.854,1.111-5.98
					c0,0,3.896-3.398,0.985-5.844c0,0,3.046-5.165-1.972-7.883C444.655,305.722,419.606,312.775,441.603,332.36z"/>
				<path style="fill:#FFC834;" d="M316.109,320.897c0,0-5.753-8.111,0-8.537c0,0-3.914-7.392,1.346-7.108
					c0,0-5.713-8.35,2.758-8.653c0,0,24.634,0.166,15.805,18.192C327.189,332.818,316.109,320.897,316.109,320.897z"/>
				<path style="fill:#FFC834;" d="M445.118,306.833c0,0,1.762,7.966-6.002,5.634c0,0-1.704,8.662-8.948,4.566
					c0,0-0.678,8.192-9.695,4.096c0,0-0.007,7.373-8.199,4.915c0,0,0.936,7.646-6.768,4.096c0,0-1.424,6.554-6.885,3.55
					c0,0,0.819,6.007-5.461,3.277c0,0-1.638,7.373-6.827,3.823c0,0,0.88,5.812-5.139,2.501c0,0,0,8.42-6.621,4.963
					c0,0-0.602,5.756-6.922,2.955c0,0,0.903,6.281-5.718,3.396c0,0-1.806,6.132-6.922,2.977c0,0-7.288,2.552-4.59-6.85
					c0,0-8.691-1.545-4.729-8.863c0,0-8.203-0.527-4.274-9.618c0,0-7.372,0.129-5.065-8.107c0,0-7.627,1.076-4.22-6.692
					c0,0-6.579-1.303-3.676-6.819c0,0-5.991,0.93-3.377-5.4c0,0-9.999-1.059-4.866-8.633c0,0-1.466-8.261,6.92-3.757
					c0,0,1.704-8.662,8.948-4.566c0,0,0.677-8.192,9.695-4.096c0,0,0.007-7.373,8.198-4.915c0,0-0.936-7.646,6.768-4.096
					c0,0,1.424-6.554,6.885-3.55c0,0-0.819-6.008,5.461-3.277c0,0,1.638-7.373,6.827-3.823c0,0-0.88-5.812,5.139-2.501
					c0,0,0-8.42,6.621-4.963c0,0,0.602-5.756,6.922-2.955c0,0-0.903-6.281,5.718-3.396c0,0,1.806-6.132,6.922-2.978
					c0,0,7.288-2.551,4.59,6.85c0,0,8.692,1.545,4.729,8.863c0,0,8.203,0.527,4.274,9.618c0,0,7.372-0.129,5.065,8.107
					c0,0,7.627-1.076,4.22,6.692c0,0,6.579,1.303,3.676,6.819c0,0,5.991-0.93,3.377,5.4
					C441.17,300.077,448.572,301.58,445.118,306.833z"/>
				<path style="fill:#FFC834;" d="M441.049,333.375c0,0,1.762,7.966-6.002,5.634c0,0-1.704,8.662-8.949,4.565
					c0,0-0.677,8.192-9.695,4.096c0,0-0.007,7.373-8.199,4.915c0,0,0.936,7.646-6.768,4.096c0,0-1.424,6.554-6.885,3.55
					c0,0,0.819,6.007-5.461,3.277c0,0-1.638,7.373-6.827,3.823c0,0,0.88,5.812-5.139,2.501c0,0,0,8.42-6.621,4.963
					c0,0-0.602,5.756-6.922,2.955c0,0,0.903,6.281-5.718,3.395c0,0-1.806,6.132-6.922,2.978c0,0-7.288,2.552-4.59-6.85
					c0,0-8.691-1.545-4.729-8.863c0,0-8.203-0.527-4.274-9.618c0,0-7.372,0.129-5.065-8.107c0,0-7.627,1.076-4.22-6.692
					c0,0-6.579-1.303-3.676-6.819c0,0-5.991,0.93-3.377-5.4c0,0-9.999-1.059-4.866-8.633c0,0-1.466-8.261,6.92-3.757
					c0,0,1.704-8.662,8.949-4.566c0,0,0.677-8.192,9.695-4.096c0,0,0.007-7.373,8.199-4.915c0,0-0.936-7.646,6.768-4.096
					c0,0,1.424-6.554,6.885-3.55c0,0-0.819-6.008,5.461-3.277c0,0,1.638-7.373,6.827-3.823c0,0-0.88-5.812,5.139-2.501
					c0,0,0-8.42,6.621-4.962c0,0,0.602-5.756,6.922-2.955c0,0-0.903-6.281,5.718-3.395c0,0,1.806-6.132,6.922-2.978
					c0,0,7.288-2.552,4.59,6.85c0,0,8.691,1.545,4.729,8.863c0,0,8.203,0.527,4.274,9.618c0,0,7.372-0.129,5.065,8.107
					c0,0,7.627-1.076,4.22,6.692c0,0,6.579,1.303,3.676,6.819c0,0,5.991-0.929,3.377,5.4
					C437.101,326.619,444.503,328.122,441.049,333.375z"/>
				<path style="fill:none;stroke:#0D3A4A;stroke-width:0.5;stroke-linecap:round;stroke-linejoin:round;stroke-miterlimit:10;" d="
					M441.049,333.375c3.454-5.253-3.948-6.755-3.948-6.755c2.615-6.33-3.377-5.4-3.377-5.4c2.903-5.516-3.676-6.819-3.676-6.819
					c3.408-7.768-4.22-6.692-4.22-6.692c2.307-8.236-5.065-8.107-5.065-8.107c3.93-9.092-4.274-9.618-4.274-9.618
					s2.483-3.732,0.456-5.689"/>
				<path style="fill:none;stroke:#0D3A4A;stroke-width:0.5;stroke-linecap:round;stroke-linejoin:round;stroke-miterlimit:10;" d="
					M363.56,298.162c0,0-0.819-6.008,5.461-3.277c0,0,1.638-7.373,6.827-3.823c0,0-0.88-5.812,5.139-2.501c0,0,0-8.42,6.621-4.962
					c0,0,0.602-5.756,6.922-2.955c0,0-0.903-6.281,5.718-3.395c0,0,1.806-6.132,6.922-2.978c0,0,7.288-2.552,4.59,6.85"/>
				<path style="fill:none;stroke:#0D3A4A;stroke-width:0.5;stroke-linecap:round;stroke-linejoin:round;stroke-miterlimit:10;" d="
					M321.01,331.774c0,0-9.999-1.059-4.866-8.633c0,0-1.466-8.261,6.92-3.757c0,0,1.704-8.662,8.949-4.566
					c0,0,0.677-8.192,9.695-4.096c0,0,0.007-7.373,8.199-4.915c0,0-0.936-7.646,6.768-4.096c0,0,0.643-2.961,2.724-3.99"/>
				<path style="fill:none;stroke:#0D3A4A;stroke-width:0.5;stroke-linecap:round;stroke-linejoin:round;stroke-miterlimit:10;" d="
					M411.24,247.729c0,0-4.223,0.941-1.279,6.738c0,0-4.58,2.199-1.799,5.961c0,0-3.591,2.617-0.896,5.888
					c0,0-4.685,1.104-0.095,7.954"/>
				<path style="fill:none;stroke:#0D3A4A;stroke-width:0.5;stroke-linecap:round;stroke-linejoin:round;stroke-miterlimit:10;" d="
					M341.316,334.949c0,0-1.515,7.642,4.981,3.63c0,0,0.955,5.004,6.305,1.165"/>
				<path style="fill:none;stroke:#0D3A4A;stroke-width:0.5;stroke-linecap:round;stroke-linejoin:round;stroke-miterlimit:10;" d="
					M371.343,320.952c0,0,0.122-8.559,7.868-4.416c0,0-1.441-5.224,3.963-4.504c0,0-3.063-4.864,2.522-5.224"/>
				<path style="fill:none;stroke:#0D3A4A;stroke-width:0.5;stroke-linecap:round;stroke-linejoin:round;stroke-miterlimit:10;" d="
					M372.551,275.53c0,0,4.663-7.179,9.011,0.454c0,0,1.563-5.189,5.753-1.7c0,0-0.001-5.748,4.918-3.078"/>
				<path style="fill:none;stroke:#0D3A4A;stroke-width:0.5;stroke-linecap:round;stroke-linejoin:round;stroke-miterlimit:10;" d="
					M412.36,319.958c0,0,4.153,4.965-0.086,6.086c0,0,3.072,1.977-1.034,4.161"/>
				<path style="fill:none;stroke:#0D3A4A;stroke-width:0.5;stroke-linecap:round;stroke-linejoin:round;stroke-miterlimit:10;" d="
					M330.678,304.264c0,0,0.951-6.402,4.605-3.979c0,0-0.563-3.609,3.797-1.992"/>
				<path style="fill:none;stroke:#0D3A4A;stroke-width:0.5;stroke-linecap:round;stroke-linejoin:round;stroke-miterlimit:10;" d="
					M369.843,345.54c0,0,1.261,4.684,5.405,1.081c0,0,1.261,3.805,5.945,1.362c0,0,0.54,2.999,4.504,0.818"/>
				<path style="fill:none;stroke:#0D3A4A;stroke-width:0.5;stroke-linecap:round;stroke-linejoin:round;stroke-miterlimit:10;" d="
					M438.039,304.95c0,0,2.449-4.187-3.026-4.607c0,0,1.824-3.57-3.205-5.189c0,0,1.756-2.491-2.58-3.781"/>
				<path style="fill:#84420B;" d="M408.22,260.385c1.566,2.108,3.043,4.321,4.491,6.592c9.473,14.859,32.932,57.334,32.932,57.334
					c5.333-1.857,0.984-10.706,0.984-10.706l-26.208-46.592c-2.431-4.323-5.321-8.382-8.665-12.044
					c-0.896-0.982-1.793-1.918-2.691-2.811c0,0-37.231,22.979-91.608,53.095c0,0-5.751-0.666-1.346,7.108
					C316.109,312.36,352.415,288.79,408.22,260.385z"/>
				<path style="fill:#84420B;" d="M353.976,279.266c0,0-0.508-8.776,6.768-4.096c0,0,0.985,12.999,2.799,21.882
					c0,0-4.06-1.163-5.464,1.749C358.079,298.8,354.033,289.419,353.976,279.266z"/>
				<path style="fill:#84420B;" d="M358.079,298.8c0,0,12.299,38.542,31.011,64.708c0,0,5.892,4.133,5.461-3.277
					c0,0-22-26.857-31.008-63.18C363.543,297.052,359.685,293.665,358.079,298.8z"/>
				<path style="fill:#84420B;" d="M332.282,350.685c0,0,42.737-13.483,88.481-51.083c0,0,2.863-15.163,4.069-26.542
					c0,0,8.575-0.793,5.065,8.107c0,0,1.287,13.122-4.069,26.542c0,0-30.389,22.931-88.481,51.083
					C337.348,358.792,329.392,359.844,332.282,350.685z"/>
				<path style="fill:#84420B;" d="M329.853,255.101c0,0-17.966,19.659,22.749,33.785l3.822-4.015c0,0-15.906-2.14-23.905-14.372
					c0,0-3.978-6.663,2.517-12.839L329.853,255.101z"/>
				<path style="fill:#84420B;" d="M356.423,237.437c0,0,16.495-1.809,6.067,44.074l7.353-3.982c0,0,13.692-41.712-13.42-46.072
					C356.423,231.457,351.304,233.179,356.423,237.437z"/>
				<path style="fill:none;stroke:#0D3A4A;stroke-width:0.5;stroke-linecap:round;stroke-linejoin:round;stroke-miterlimit:10;" d="
					M389.09,363.509c-2.125,7.704-6.827,3.823-6.827,3.823c0.527,6.457-5.139,2.501-5.139,2.501
					c-0.383,8.735-6.621,4.963-6.621,4.963c-1.441,6.02-6.922,2.955-6.922,2.955c0.427,6.527-5.718,3.395-5.718,3.395
					c-2.065,6.473-6.922,2.978-6.922,2.978c-7.874,1.884-4.59-6.85-4.59-6.85s-8.563-0.357-4.729-8.863c0,0-8.132,0.354-4.274-9.618
					"/>
			</g>
		</g>
		<g>
			<path style="fill:#84420B;" d="M141.73,462.664L141.73,462.664c-3.32,0.183-6.159-2.36-6.342-5.68l-16.669-302.31l8.932-0.492
				l19.754,302.078C147.624,459.602,145.074,462.48,141.73,462.664z"/>
			<path style="fill:#90A49F;" d="M126.696,169.5l-5.122,0.282c-3.182,0.175-5.903-2.262-6.079-5.443l0.014-18.854
				c-0.175-3.182,2.262-5.903,5.443-6.079l3.021-0.167c3.182-0.175,5.903,2.262,6.079,5.443l2.087,18.738
				C132.315,166.603,129.878,169.324,126.696,169.5z"/>
			<path style="fill:#90A49F;" d="M120.085,135.177c4.471-0.247,9.351-2.397,9.351-2.397s-5.685-76.538-2.762-76.913
				c2.923-0.375,3.367,3.865,3.367,3.865l8.707,70.204c9.733-2.705,10.55-14.661,10.55-14.661
				c-1.732-16.152-8.386-49.141-8.183-56.9c0.203-7.76,3.915-2.563,3.915-2.563s10.347,37.33,11.539,58.937
				c1.191,21.607-4.746,33.205-33.54,34.793c-28.794,1.588-35.971-9.288-37.162-30.895C84.674,97.042,90.854,58.8,90.854,58.8
				s3.118-5.573,4.173,2.117c1.055,7.69-1.933,41.211-1.878,57.455c0,0,2.127,11.794,12.098,13.412l0.936-70.736
				c0,0-0.025-4.263,2.922-4.212c2.946,0.051,5.71,76.75,5.71,76.75S115.615,135.424,120.085,135.177z"/>
			<path style="fill:none;stroke:#0D3A4A;stroke-width:0.5;stroke-linecap:round;stroke-linejoin:round;stroke-miterlimit:10;" d="
				M133.069,418.16c0,0,3.912,4.33,11.845,0"/>
		</g>
		<g>
			<g>
				<g>
					<path style="fill:#D8775D;" d="M297.625,170.04l10.497,28.707c0,0,18.346,17.774,33.455,31.403c0,0-1.022,2.43-2.589,5.497
						c-3.409,6.674-11.733,9.1-18.21,5.331c-10.974-6.385-27.793-17.17-36.775-27.927c-14.058-16.836-14.065-50.446-14.065-50.446
						S292.44,155.711,297.625,170.04z"/>
					
						<path style="fill:none;stroke:#0D3A4A;stroke-width:0.5;stroke-linecap:round;stroke-linejoin:round;stroke-miterlimit:10;" d="
						M322.102,212.102c0,0-6.719-6.409-13.296-12.498"/>
				</g>
			</g>
			<g>
				<path style="fill:#D8775D;" d="M330.948,224.669c0,0,4.065,2.352,5.858,1.715c1.793-0.636,14.792-2.692,17.904,2.664
					c3.112,5.356,1.52,8.075,1.52,8.075s9.469,15.01,3.116,17.264c0,0-2.849,1.011-4.379-1.032c0,0-0.038,5.573-5.827,3.529
					c0,0-1.468,4.298-6.283,1.346c0,0-4.03,4.243-7.613-0.192c0,0-18.713-12.236-17.929-23.42
					C317.605,230.487,325.793,226.068,330.948,224.669z"/>
				<path style="fill:none;stroke:#0D3A4A;stroke-width:0.5;stroke-linecap:round;stroke-linejoin:round;stroke-miterlimit:10;" d="
					M356.23,237.123c0,0-3.521,6.128-4.758,10.146c-1.237,4.018-11.203-0.397-4.121-11.612c0,0-3.914,5.443-9.758,3.463"/>
				<path style="fill:none;stroke:#0D3A4A;stroke-width:0.5;stroke-linecap:round;stroke-linejoin:round;stroke-miterlimit:10;" d="
					M354.968,253.355c0,0-1.648-2.823-2.99-7.534"/>
				<path style="fill:none;stroke:#0D3A4A;stroke-width:0.5;stroke-linecap:round;stroke-linejoin:round;stroke-miterlimit:10;" d="
					M349.141,256.884c0,0-6.318-6.571-5.936-10.808c0,0,0.09-1.432,1.7-2.044"/>
				<path style="fill:none;stroke:#0D3A4A;stroke-width:0.5;stroke-linecap:round;stroke-linejoin:round;stroke-miterlimit:10;" d="
					M342.858,258.229c0,0-5.002-4.646-5.31-7.615s4.576-3.66,5.746-3.127"/>
				<path style="fill:none;stroke:#0D3A4A;stroke-width:0.5;stroke-linecap:round;stroke-linejoin:round;stroke-miterlimit:10;" d="
					M338.092,252.297c0,0-1.677-0.604-3.268,0.759c-1.591,1.363-0.536,3.268,0.421,4.981"/>
				<path style="fill:none;stroke:#0D3A4A;stroke-width:0.5;stroke-linecap:round;stroke-linejoin:round;stroke-miterlimit:10;" d="
					M357.534,239.365c0,0-0.983-1.193-2.222-0.579"/>
				<path style="fill:none;stroke:#0D3A4A;stroke-width:0.5;stroke-linecap:round;stroke-linejoin:round;stroke-miterlimit:10;" d="
					M351.555,247.009c0,0-2.979-0.516-2.566-3.431c0.412-2.916,2.937-3.132,4.809-1.854"/>
				<path style="fill:none;stroke:#0D3A4A;stroke-width:0.5;stroke-linecap:round;stroke-linejoin:round;stroke-miterlimit:10;" d="
					M353.263,227.472c0,0-3.754-3.23-14.817-1.466"/>
				<path style="fill:#84420B;" d="M329.853,255.101l14.981-12.344c0,0-0.034,0.912-0.042,1.36c0,0-1.699,0.318-1.601,3.241
					c0,0-7.247-0.585-5.219,4.686c0,0-6.5-0.028-2.937,5.616l-2.824,0.093L329.853,255.101z"/>
			</g>
			<g>
				<path style="fill:#6995ED;" d="M207.987,218.144c0,0-22.474,30.394-4.979,113.615c0,0,3.31,47.16,10.403,102.135
					c0,0,9.93,3.31,25.534,0c0,0-1.419-63.834-3.783-87.949c0,0,4.816-32.969,5.761-60.394c0,0,11.65,37.638,25.281,64.177
					c0,0,12.989,54.348,19.609,85.555c0,0,14.286,1.447,24.216-1.39c0,0-2.687-61.469-14.035-102.606
					c0,0-7.629-70.884-30.501-113.142C265.492,218.144,241.54,225.468,207.987,218.144z"/>
				<path style="fill:none;stroke:#0D3A4A;stroke-width:0.5;stroke-linecap:round;stroke-linejoin:round;stroke-miterlimit:10;" d="
					M215.798,227.92c0,0-3.867,13.406-12.632,21.656"/>
				<path style="fill:none;stroke:#0D3A4A;stroke-width:0.5;stroke-linecap:round;stroke-linejoin:round;stroke-miterlimit:10;" d="
					M261.946,227.92c0,0,2.828,11.343,13.015,18.046"/>
				<path style="fill:none;stroke:#0D3A4A;stroke-width:0.5;stroke-linecap:round;stroke-linejoin:round;stroke-miterlimit:10;" d="
					M207.464,244.677c0,0-0.64,52.788,4.484,72.498c5.125,19.709,8.603,117.979,8.603,117.979"/>
				<path style="fill:none;stroke:#0D3A4A;stroke-width:0.5;stroke-linecap:round;stroke-linejoin:round;stroke-miterlimit:10;" d="
					M272.247,243.927c0,0,9.894,54.34,16.332,82.828c7.145,31.612,14.15,77.351,16.248,107.844"/>
				<path style="fill:#0D3A4A;" d="M293.363,361.891c0,0-10.939,11.578-20.523,15.971l-2.648-11.293L293.363,361.891z"/>
				<path style="fill:#0D3A4A;" d="M217.113,366.026c0,0,5.562,6.292,19.874,8.81l-0.325-6.707L217.113,366.026z"/>
			</g>
			<g>
				<g>
					<path style="fill:#84420B;" d="M238.889,463.052h-36.757c-1.288,0-2.345-1.021-2.378-2.309
						c-0.132-5.134,0.609-17.048,10.315-17.048c0,0,2.993-10.377,4.789-9.778c1.796,0.599,12.712,1.374,24.086-0.023
						c0,0,2.9,4.397,2.323,26.835C241.234,462.018,240.178,463.052,238.889,463.052z"/>
					
						<path style="fill:none;stroke:#0D3A4A;stroke-width:0.5;stroke-linecap:round;stroke-linejoin:round;stroke-miterlimit:10;" d="
						M210.069,443.696c0,0,26.046-2.203,26.046,15.111"/>
					
						<line style="fill:none;stroke:#0D3A4A;stroke-width:0.5;stroke-linecap:round;stroke-linejoin:round;stroke-miterlimit:10;" x1="199.741" y1="458.807" x2="241.309" y2="458.807"/>
					
						<path style="fill:none;stroke:#0D3A4A;stroke-width:0.5;stroke-linecap:round;stroke-linejoin:round;stroke-miterlimit:10;" d="
						M211.561,439.188c0,0,11.261-1.152,18.249,2.156"/>
				</g>
				<g>
					<path style="fill:#84420B;" d="M310.028,433.893c0,0-12.25,2.106-21.419,1.023c-2.498-0.295-4.649,0.733-4.386,3.622
						l-0.015,19.407c-0.002,2.82,1.889,5.107,4.223,5.107h50.55c2.939,0,5.106-3.31,4.425-6.765
						c-1.49-7.557-4.036-12.683-24.688-12.683C318.719,443.605,316.272,440.169,310.028,433.893z"/>
					
						<line style="fill:none;stroke:#0D3A4A;stroke-width:0.5;stroke-linecap:round;stroke-linejoin:round;stroke-miterlimit:10;" x1="343.407" y1="458.807" x2="284.208" y2="458.807"/>
					
						<path style="fill:none;stroke:#0D3A4A;stroke-width:0.5;stroke-linecap:round;stroke-linejoin:round;stroke-miterlimit:10;" d="
						M325.699,443.827c0,0-9.489,0.473-8.015,14.98"/>
					
						<path style="fill:none;stroke:#0D3A4A;stroke-width:0.5;stroke-linecap:round;stroke-linejoin:round;stroke-miterlimit:10;" d="
						M315.912,440.169c0,0-5.306-2.584-13.164,3.658"/>
					
						<path style="fill:none;stroke:#0D3A4A;stroke-width:0.5;stroke-linecap:round;stroke-linejoin:round;stroke-miterlimit:10;" d="
						M318.719,443.605c0,0-7.95,0.111-12.118,4.867"/>
				</g>
			</g>
			<g>
				<path style="fill:#0D3A4A;" d="M196.495,135.102c-6.224,0-9.658-7.261-5.672-12.041c0.302-0.363,0.621-0.734,0.957-1.114
					c8.062-9.124-0.501-17.261,7.855-24.673c8.357-7.412,7.163-12.745,7.163-12.745c0-41.857,32.9-38.519,32.9-38.519
					s32.9-3.337,32.9,38.519c0,0-1.194,5.333,7.163,12.745s-0.207,15.549,7.855,24.673c0.336,0.38,0.655,0.752,0.957,1.114
					c3.986,4.78,0.552,12.041-5.672,12.041H196.495z"/>
				<path style="fill:#D8775D;" d="M239.762,55.172c-5.759,0-10.041,0.66-13.2,1.556c-5.067,1.438-8.654,5.935-9.05,11.187
					c-0.256,3.389-0.45,6.849-0.45,6.849s-5.377-2.879-7.156,7.036c-1.891,10.538,5.194,10.744,5.194,10.744s0.28,5.684,2.235,9.419
					c2.432,4.647,7.869,6.843,7.869,6.843l-0.417,13.334c0,0,5.768,5.764,14.974,6.004c9.206-0.24,14.974-6.003,14.974-6.003
					l-0.416-13.334c0,0,5.437-2.195,7.869-6.843c1.955-3.735,2.235-9.419,2.235-9.419s7.085-0.205,5.194-10.744
					c-1.778-9.915-7.156-7.036-7.156-7.036s-0.194-3.459-0.45-6.849c-0.396-5.252-3.983-9.749-9.049-11.188
					C249.803,55.832,245.521,55.172,239.762,55.172z"/>
				<path style="fill:#C46341;" d="M244.189,55.249"/>
				<path style="fill:#0D3A4A;" d="M220.619,72.275c0.62-0.977,1.365-1.659,2.249-2.262c0.873-0.595,1.865-1.004,2.891-1.283
					c1.032-0.221,2.1-0.338,3.143-0.249c0.528,0.019,1.03,0.144,1.548,0.215c0.5,0.129,0.993,0.273,1.481,0.436
					c0.807,0.27,1.254,1.165,0.998,1.998c-0.242,0.786-1.023,1.237-1.788,1.059l-0.123-0.029c-0.807-0.19-1.596-0.41-2.391-0.502
					c-0.794-0.129-1.582-0.132-2.372-0.075c-0.791,0.054-1.563,0.257-2.326,0.53c-0.749,0.269-1.528,0.707-2.138,1.148l-0.109,0.079
					c-0.339,0.245-0.808,0.159-1.047-0.193C220.451,72.88,220.456,72.533,220.619,72.275z"/>
				<path style="fill:#0D3A4A;" d="M258.882,71.979c-0.663-0.948-1.438-1.596-2.348-2.159c-0.899-0.555-1.909-0.919-2.945-1.151
					c-1.041-0.174-2.113-0.244-3.151-0.108c-0.526,0.043-1.023,0.19-1.536,0.285c-0.494,0.151-0.98,0.317-1.46,0.502
					c-0.794,0.306-1.201,1.22-0.907,2.041c0.277,0.774,1.077,1.19,1.834,0.977l0.121-0.035c0.798-0.227,1.576-0.482,2.366-0.609
					c0.788-0.164,1.575-0.203,2.366-0.181c0.792,0.018,1.573,0.186,2.348,0.425c0.76,0.235,1.559,0.638,2.188,1.051l0.112,0.074
					c0.35,0.23,0.814,0.122,1.037-0.24C259.076,72.576,259.056,72.229,258.882,71.979z"/>
				<path style="fill:#0D3A4A;" d="M227.794,109.574c0,0,11.956,5.139,23.912,0.001c0,0-2.437,6.513-11.956,6.513
					C230.23,116.088,227.794,109.574,227.794,109.574z"/>
				<path style="fill:none;stroke:#0D3A4A;stroke-width:0.5;stroke-linecap:round;stroke-linejoin:round;stroke-miterlimit:10;" d="
					M264.266,88.609c0,0,1.82-1.229,1.233-2.789c-0.587-1.56-1.96-1.083-2.013-2.767"/>
				<path style="fill:none;stroke:#0D3A4A;stroke-width:0.5;stroke-linecap:round;stroke-linejoin:round;stroke-miterlimit:10;" d="
					M263.779,77.679c0,0,3.036-1.402,3.675,4.322"/>
				<path style="fill:none;stroke:#0D3A4A;stroke-width:0.5;stroke-linecap:round;stroke-linejoin:round;stroke-miterlimit:10;" d="
					M215.057,88.607c0,0-1.82-1.229-1.233-2.789c0.588-1.56,1.96-1.083,2.013-2.767"/>
				<path style="fill:none;stroke:#0D3A4A;stroke-width:0.5;stroke-linecap:round;stroke-linejoin:round;stroke-miterlimit:10;" d="
					M215.545,77.677c0,0-3.036-1.402-3.675,4.322"/>
				<g>
					
						<path style="fill:none;stroke:#0D3A4A;stroke-width:0.5;stroke-linecap:round;stroke-linejoin:round;stroke-miterlimit:10;" d="
						M235.318,88.921c0,0-3.096,2.257-0.2,4.314"/>
					
						<path style="fill:none;stroke:#0D3A4A;stroke-width:0.5;stroke-linecap:round;stroke-linejoin:round;stroke-miterlimit:10;" d="
						M244.403,93.236c2.896-2.057-0.199-4.314-0.199-4.314s-2.054-1.342-1.72-5.586"/>
					
						<path style="fill:none;stroke:#0D3A4A;stroke-width:0.5;stroke-linecap:round;stroke-linejoin:round;stroke-miterlimit:10;" d="
						M236.804,92.62c0,0,0.727-0.658,1.856,0.043"/>
					
						<path style="fill:none;stroke:#0D3A4A;stroke-width:0.5;stroke-linecap:round;stroke-linejoin:round;stroke-miterlimit:10;" d="
						M240.888,92.62c0,0,0.727-0.658,1.856,0.043"/>
				</g>
				<g>
					<path style="fill:#FFFFFF;" d="M218.815,81.636c0,0,8.786-8.923,16.261,1.109c0,0-2.699,4.628-8.13,4.856
						C221.514,87.829,218.815,81.636,218.815,81.636z"/>
					<g>
						<g>
							<defs>
								<path id="SVGID_1_" d="M218.815,81.636c0,0,8.786-8.923,16.261,1.109c0,0-2.699,4.628-8.13,4.856
									C221.514,87.829,218.815,81.636,218.815,81.636z"/>
							</defs>
							<clipPath id="SVGID_00000105415593443092233640000005820224397700079281_">
								<use xlink:href="#SVGID_1_"  style="overflow:visible;"/>
							</clipPath>
							<path style="clip-path:url(#SVGID_00000105415593443092233640000005820224397700079281_);fill:#0D3A4A;" d="M232.138,82.794
								c0,2.868-2.325,5.192-5.193,5.192c-2.868,0-5.193-2.325-5.193-5.193c0-2.868,2.325-5.193,5.193-5.192
								C229.814,77.601,232.138,79.926,232.138,82.794z"/>
						</g>
					</g>
					<g>
						<path style="fill:#0D3A4A;" d="M234.736,82.736c-0.829-1.304-1.93-2.504-3.189-3.347c-1.267-0.837-2.712-1.353-4.209-1.332
							c-1.551,0.006-3.065,0.208-4.348,0.938c-0.655,0.36-1.286,0.834-1.917,1.336c-0.645,0.486-1.28,1.011-1.951,1.493l0,0
							l-0.033,0.026c-0.195,0.155-0.479,0.122-0.634-0.074l-0.03-0.043l-1.083-1.759c-0.109-0.177-0.054-0.408,0.123-0.517
							c0.166-0.102,0.382-0.058,0.497,0.094l1.241,1.651l-0.696-0.091v0c1.157-1.151,2.262-2.357,3.758-3.339
							c0.754-0.479,1.627-0.813,2.496-0.995c0.882-0.172,1.724-0.237,2.606-0.218c1.785,0.05,3.568,0.689,4.938,1.786
							c1.384,1.09,2.437,2.475,3.111,4.074c0.08,0.191-0.009,0.41-0.2,0.491c-0.171,0.072-0.365,0.008-0.461-0.144L234.736,82.736z"
							/>
					</g>
					<g>
						<path style="fill:#0D3A4A;" d="M219.552,78.499l0.994,1.439c0.144,0.209,0.092,0.495-0.117,0.639
							c-0.209,0.144-0.495,0.092-0.639-0.117c-0.008-0.012-0.016-0.025-0.023-0.037l-0.852-1.528
							c-0.101-0.181-0.036-0.41,0.145-0.511C219.23,78.29,219.443,78.343,219.552,78.499z"/>
					</g>
					<g>
						<path style="fill:#0D3A4A;" d="M221.114,77.433l0.946,1.254c0.167,0.222,0.123,0.537-0.099,0.704
							c-0.221,0.167-0.536,0.123-0.704-0.099c-0.016-0.021-0.031-0.045-0.043-0.068l-0.733-1.389
							c-0.097-0.184-0.027-0.411,0.157-0.508C220.803,77.24,221.004,77.288,221.114,77.433z"/>
					</g>
				</g>
				<g>
					<path style="fill:#FFFFFF;" d="M260.699,81.785c0,0-8.614-9.089-16.279,0.799c0,0,2.61,4.679,8.037,5.01
						C257.883,87.925,260.699,81.785,260.699,81.785z"/>
					<g>
						<g>
							<defs>
								<path id="SVGID_00000060006134947818479820000008339487793400570280_" d="M260.699,81.785c0,0-8.614-9.089-16.279,0.799
									c0,0,2.61,4.679,8.037,5.01C257.883,87.925,260.699,81.785,260.699,81.785z"/>
							</defs>
							<clipPath id="SVGID_00000072248268343874053790000016947052342044712364_">
								<use xlink:href="#SVGID_00000060006134947818479820000008339487793400570280_"  style="overflow:visible;"/>
							</clipPath>
							<path style="clip-path:url(#SVGID_00000072248268343874053790000016947052342044712364_);fill:#0D3A4A;" d="M247.357,82.688
								c-0.055,2.867,2.226,5.236,5.093,5.29c2.867,0.055,5.236-2.226,5.29-5.093c0.055-2.867-2.226-5.236-5.093-5.29
								C249.78,77.541,247.411,79.821,247.357,82.688z"/>
						</g>
					</g>
					<g>
						<path style="fill:#0D3A4A;" d="M244.087,82.251c0.704-1.586,1.783-2.95,3.188-4.014c1.39-1.071,3.185-1.675,4.971-1.692
							c0.882-0.003,1.723,0.079,2.601,0.268c0.866,0.199,1.733,0.55,2.477,1.043c1.477,1.01,2.559,2.237,3.694,3.41l0,0
							l-0.698,0.078l1.272-1.627c0.128-0.163,0.364-0.192,0.527-0.064c0.154,0.12,0.188,0.338,0.085,0.499l-1.116,1.738
							c-0.135,0.21-0.414,0.27-0.623,0.136l-0.041-0.03l-0.034-0.028l0,0c-0.662-0.494-1.286-1.031-1.922-1.53
							c-0.621-0.514-1.243-1-1.891-1.372c-1.269-0.755-2.778-0.985-4.329-1.021c-1.496-0.049-2.95,0.439-4.233,1.252
							c-1.274,0.819-2.398,1.998-3.252,3.285l-0.019,0.029c-0.114,0.172-0.347,0.219-0.519,0.105
							C244.067,82.613,244.014,82.415,244.087,82.251z"/>
					</g>
					<g>
						<path style="fill:#0D3A4A;" d="M260.652,79.043l-0.88,1.511c-0.128,0.219-0.409,0.294-0.628,0.166s-0.293-0.409-0.166-0.628
							c0.007-0.013,0.016-0.025,0.024-0.037l1.021-1.42c0.121-0.168,0.356-0.207,0.524-0.085
							C260.705,78.663,260.747,78.878,260.652,79.043z"/>
					</g>
					<g>
						<path style="fill:#0D3A4A;" d="M259.107,77.953l-0.76,1.375c-0.134,0.243-0.44,0.331-0.683,0.197
							c-0.243-0.134-0.331-0.44-0.197-0.683c0.013-0.023,0.029-0.047,0.044-0.067l0.969-1.236c0.128-0.163,0.365-0.192,0.528-0.064
							C259.157,77.591,259.195,77.794,259.107,77.953z"/>
					</g>
				</g>
				<g>
					<path style="fill:#0D3A4A;" d="M231.412,97.25c0,0,6.62,0.668,16.573,0.003c0,0,1.846,8.186-8.262,8.186
						C230.852,105.439,231.412,97.25,231.412,97.25z"/>
					<path style="fill:#FFFFFF;" d="M231.412,97.25c0,0,8.311,4.661,16.573,0.003L231.412,97.25z"/>
					<path style="fill:#F4B1A3;" d="M246.021,103.645c0,0-2.198-1.163-5.491-1.163c-3.293,0-6.544,1.163-6.544,1.163
						s1.855,1.998,6.402,1.998C243.963,105.643,246.021,103.645,246.021,103.645z"/>
				</g>
				<path style="fill:#0D3A4A;" d="M239.762,55.172c0,0-1.102,7.098-19.605,13.731c-1.814,0.65-1.114,4.818-3.095,5.862
					c0,0-7.307-23.993,22.942-23.993s22.457,23.995,22.457,23.995s-2.123-2.874-4.099-5.583
					C254.881,64.408,242.744,65.165,239.762,55.172z"/>
			</g>
			<g>
				<path style="fill:#EA645E;" d="M254.611,122.14c0,0,14.126,2.902,21.675,6.004c7.549,3.102,13.641,72.787-36.588,72.787
					s-44.137-69.686-36.588-72.787c7.549-3.102,21.675-6.004,21.675-6.004s3.837,4.289,15.218,4.289
					C251.385,126.429,254.611,122.14,254.611,122.14z"/>
				<path style="fill:none;stroke:#0D3A4A;stroke-width:0.5;stroke-linecap:round;stroke-linejoin:round;stroke-miterlimit:10;" d="
					M224.785,122.14c0,0,3.871,4.289,15.218,4.289c11.348,0,14.607-4.289,14.607-4.289"/>
				<path style="fill:none;stroke:#0D3A4A;stroke-width:0.5;stroke-linecap:round;stroke-linejoin:round;stroke-miterlimit:10;" d="
					M260.033,123.346c0,0-1.352,8.179-11.212,12.672c0,0-2.725-2.55-9.11-5.586c-6.384,3.036-9.11,5.586-9.11,5.586
					c-9.86-4.493-11.212-12.672-11.212-12.672"/>
			</g>
			<g>
				<g>
					<path style="fill:#D8775D;" d="M182.867,158.434l-4.532,25.102c0,0-24.46,7.359-44.142,12.525c0,0-0.209,2.628-0.226,6.072
						c-0.038,7.494,6.241,13.473,13.726,13.101c12.681-0.63,32.574-2.483,45.494-7.912c20.221-8.496,14.245-48.62,14.245-48.62
						S187.97,146.292,182.867,158.434z"/>
					
						<path style="fill:none;stroke:#0D3A4A;stroke-width:0.5;stroke-linecap:round;stroke-linejoin:round;stroke-miterlimit:10;" d="
						M159.782,188.976c0,0,11.071-3.22,19.71-5.607"/>
				</g>
				<path style="fill:#EA645E;" d="M203.11,128.144c0,0-12.362,6.896-23.619,32.337c-0.321,0.726-0.894-1.092-1.489-0.586
					c-1.097,0.933-2.858,3.951-3.436,5.452c0,0,16.962,17.911,33.69,23.286C208.257,188.632,218.932,134.933,203.11,128.144z"/>
				<path style="fill:none;stroke:#0D3A4A;stroke-width:0.5;stroke-linecap:round;stroke-linejoin:round;stroke-miterlimit:10;" d="
					M178.934,160.366c0,0,14.562,14.622,30.65,20.401"/>
				<path style="fill:#0D3A4A;" d="M195.211,182.272c0,0,4.777,9.249,7.561,16.148c0,0,2.776-4.964,3.84-10.358
					C206.612,188.063,200.26,185.704,195.211,182.272z"/>
				<path style="fill:none;stroke:#0D3A4A;stroke-width:0.5;stroke-linecap:round;stroke-linejoin:round;stroke-miterlimit:10;" d="
					M177.836,168.567c0,0,6.33,5.969,10.87,9.198"/>
			</g>
			<g>
				<path style="fill:#EA645E;" d="M276.29,128.144c0,0,10.634,5.116,23.559,35.128c0.173,0.402,2.385,0.422,2.559,0.832
					c1.027,2.428,1.888,4.714,2.939,7.467c0,0-17.475,11.685-34.204,17.06C271.143,188.632,260.469,134.933,276.29,128.144z"/>
				<path style="fill:none;stroke:#0D3A4A;stroke-width:0.5;stroke-linecap:round;stroke-linejoin:round;stroke-miterlimit:10;" d="
					M299.849,163.273c0,0-15.906,10.471-30.184,16.462"/>
				<path style="fill:none;stroke:#0D3A4A;stroke-width:0.5;stroke-linecap:round;stroke-linejoin:round;stroke-miterlimit:10;" d="
					M302.192,173.583c0,0-5.199,3.347-10.703,6.152"/>
				<path style="fill:#0D3A4A;" d="M272.978,188.018c0,0,7.918-3.262,14.208-6.069c0,0-6.433,10.304-8.957,21.837
					C278.229,203.787,274.524,195.837,272.978,188.018z"/>
			</g>
			<g>
				<path style="fill:#D8775D;" d="M149.636,197.34c0,0-4.377-1.704-5.001-3.501c-0.624-1.798-7.144-13.229-13.27-12.311
					c-6.126,0.918-7.253,3.861-7.253,3.861s-17.635,1.99-15.424,8.358c0,0,0.991,2.856,3.543,2.773c0,0-4.327,3.513,0.887,6.754
					c0,0-2.438,3.832,2.877,5.746c0,0-0.793,5.798,4.908,5.823c0,0,21.248,6.96,29.488-0.643
					C153.434,211.392,151.766,202.238,149.636,197.34z"/>
				<path style="fill:#84420B;" d="M131.791,217.486l-1.335-24.704c0,0-2.043,3.737-4.654,5.907c0,0,0.813,1.525-1.529,3.275
					c0,0,4.986,5.292-0.396,7.003c0,0,4.085,5.057-2.548,5.803l1.693,2.263L131.791,217.486z"/>
				<path style="fill:none;stroke:#0D3A4A;stroke-width:0.5;stroke-linecap:round;stroke-linejoin:round;stroke-miterlimit:10;" d="
					M124.112,185.389c0,0-2.583,6.579-4.946,10.056c-2.363,3.477,7.312,8.497,11.64-4.041c0,0-1.802,6.457,3.396,9.782"/>
				<path style="fill:none;stroke:#0D3A4A;stroke-width:0.5;stroke-linecap:round;stroke-linejoin:round;stroke-miterlimit:10;" d="
					M112.23,196.52c0,0,3.234-0.478,7.75-2.374"/>
				<path style="fill:none;stroke:#0D3A4A;stroke-width:0.5;stroke-linecap:round;stroke-linejoin:round;stroke-miterlimit:10;" d="
					M113.118,203.274c0,0,9.078,0.824,12.147-2.122c0,0,1.062-0.965,0.533-2.605"/>
				<path style="fill:none;stroke:#0D3A4A;stroke-width:0.5;stroke-linecap:round;stroke-linejoin:round;stroke-miterlimit:10;" d="
					M115.995,209.02c0,0,6.753,1.001,9.263-0.615c2.51-1.616-0.003-5.86-1.151-6.44"/>
				<path style="fill:none;stroke:#0D3A4A;stroke-width:0.5;stroke-linecap:round;stroke-linejoin:round;stroke-miterlimit:10;" d="
					M123.604,209.032c0,0,1.519,0.932,1.45,3.026c-0.069,2.094-2.216,2.462-4.151,2.785"/>
				<path style="fill:none;stroke:#0D3A4A;stroke-width:0.5;stroke-linecap:round;stroke-linejoin:round;stroke-miterlimit:10;" d="
					M121.547,185.772c0,0,1.546,0.021,1.841,1.373"/>
				<path style="fill:none;stroke:#0D3A4A;stroke-width:0.5;stroke-linecap:round;stroke-linejoin:round;stroke-miterlimit:10;" d="
					M119.318,195.217c0,0,2.264,2.003,4.282-0.142c2.018-2.144,0.61-4.25-1.559-4.913"/>
				<path style="fill:none;stroke:#0D3A4A;stroke-width:0.5;stroke-linecap:round;stroke-linejoin:round;stroke-miterlimit:10;" d="
					M133.5,181.672c0,0,4.868,0.912,10.406,10.65"/>
			</g>
			<g>
				<path style="fill:#239883;" d="M253.185,368.229c-22.943,1.384-50.382-4.781-50.382-4.781c0-65.176,5.281-186.148,5.281-186.148
					c0.241-21.349,0.174-50.967,0.174-50.967s3.647-2.656,7.309-2.047c0,0,3.667,25.81,4.613,38.112c0,0,13.974,0.888,20.708,0.888
					c6.734,0,16.253-0.888,16.253-0.888c0.946-12.302,4.593-38.635,4.593-38.635c3.662-0.609,7.327,1.915,7.327,1.915
					s-0.065,30.274,0.176,51.623c0,0,28.284,116.504,38.572,180.391C307.809,357.69,286.626,366.212,253.185,368.229z"/>
				<path style="fill:none;stroke:#0D3A4A;stroke-width:0.5;stroke-linecap:round;stroke-linejoin:round;stroke-miterlimit:10;" d="
					M257.141,162.396c0,0,0.813,6.57,4.994,7.05c4.979,0.572,7.003-3.118,6.984-7.05"/>
				<path style="fill:none;stroke:#0D3A4A;stroke-width:0.5;stroke-linecap:round;stroke-linejoin:round;stroke-miterlimit:10;" d="
					M220.18,162.396c0,0-0.767,5.607-5.041,6.171c-6.882,0.908-6.942-5.295-6.942-5.295l0.06-36.941"/>
				
					<line style="fill:none;stroke:#0D3A4A;stroke-width:0.5;stroke-linecap:round;stroke-linejoin:round;stroke-miterlimit:10;" x1="261.734" y1="123.761" x2="258.832" y2="146.241"/>
				<g>
					<g>
						<path style="fill:none;stroke:#0D3A4A;stroke-width:0.5;stroke-linecap:round;stroke-linejoin:round;" d="M208.083,177.299
							c0,0,1.423,0.202,3.968,0.475"/>
						
							<path style="fill:none;stroke:#0D3A4A;stroke-width:0.5;stroke-linecap:round;stroke-linejoin:round;stroke-dasharray:7.482,4.6763;" d="
							M216.705,178.222c10.02,0.863,27.578,1.756,46.229-0.166"/>
						<path style="fill:none;stroke:#0D3A4A;stroke-width:0.5;stroke-linecap:round;stroke-linejoin:round;" d="M265.269,177.801
							c1.319-0.152,2.643-0.319,3.968-0.501"/>
					</g>
				</g>
				<path style="fill:none;stroke:#0D3A4A;stroke-width:0.5;stroke-linecap:round;stroke-linejoin:round;stroke-miterlimit:10;" d="
					M227.33,162.805c0,0,10.871,0.821,16.949,0.468"/>
				<path style="fill:none;stroke:#0D3A4A;stroke-width:0.5;stroke-linecap:round;stroke-linejoin:round;stroke-miterlimit:10;" d="
					M224.472,197.227c0,0,21.928,0.07,35.223,0l4.354,34.438c0,0-12.3,6.023-35.492,3.856
					C228.558,235.521,226.455,217.237,224.472,197.227z"/>
				<path style="fill:#FFC834;" d="M215.532,161.768c0,0.892-0.723,1.616-1.616,1.616c-0.892,0-1.616-0.723-1.616-1.616
					s0.723-1.616,1.616-1.616C214.809,160.152,215.532,160.876,215.532,161.768z"/>
				<path style="fill:#FFC834;" d="M265.177,161.768c0,0.892-0.723,1.616-1.616,1.616c-0.892,0-1.616-0.723-1.616-1.616
					s0.723-1.616,1.616-1.616C264.454,160.152,265.177,160.876,265.177,161.768z"/>
				<path style="fill:none;stroke:#0D3A4A;stroke-width:0.5;stroke-linecap:round;stroke-linejoin:round;stroke-miterlimit:10;" d="
					M203.166,345.968c0,0,52.85,5.453,100.866-9.914"/>
			</g>
		</g>
	</g>
</g>
</svg>
