<?xml version="1.0" encoding="utf-8"?>
<!-- Generator: Adobe Illustrator 27.5.0, SVG Export Plug-In . SVG Version: 6.00 Build 0)  -->
<svg version="1.1" xmlns="http://www.w3.org/2000/svg" xmlns:xlink="http://www.w3.org/1999/xlink" x="0px" y="0px"
	 viewBox="0 0 500 500" style="enable-background:new 0 0 500 500;" xml:space="preserve">
<g id="BACKGROUND">
	<rect style="fill:#EFDDC6;" width="500" height="500"/>
</g>
<g id="OBJECTS">
	<g>
		<path style="fill:#239883;" d="M500,500l-0.111-152.156c1.001-5.835-5.098-19.993-5.098-19.993
			c-0.61,5.595-8.236,17.48-8.236,17.48c0.572-3.334-1.949-8.999-1.949-8.999c-0.619,3.612-6.711,8.589-6.711,8.589
			c-0.274-6.545-4.773-16.965-4.773-16.965c-2.809,6.197-14.364,14.523-14.364,14.523c-0.504-3.172-5.726-11.408-5.726-11.408
			c-3.446,5.842-15.533,13.149-15.533,13.149c1.001-5.835-2.974-19.311-2.974-19.311c-0.61,5.595-8.236,17.48-8.236,17.48
			c0.572-3.334-1.949-8.999-1.949-8.999c-0.619,3.612-6.711,8.589-6.711,8.589c-0.274-6.545-4.773-16.965-4.773-16.965
			c-2.809,6.197-14.363,14.523-14.363,14.523c-0.504-3.172-5.726-11.408-5.726-11.408c-3.446,5.842-20.288,12.737-20.288,12.737
			c0.557-5.874-4.431-19.126-4.431-19.126c-0.185,5.615-6.896,17.857-6.896,17.857c0.318-3.356-2.627-8.885-2.627-8.885
			c-0.345,3.636-6.048,8.907-6.048,8.907c-0.77-6.519-6.049-16.695-6.049-16.695c-2.334,6.326-13.237,15.211-13.237,15.211
			c-0.743-3.141-6.579-11.101-6.579-11.101c-2.997,6.003-14.508,13.898-14.508,13.898c0.557-5.874-4.431-19.126-4.431-19.126
			c-0.185,5.615-6.896,17.857-6.896,17.857c0.318-3.356-2.627-8.885-2.627-8.885c-0.345,3.636-6.048,8.907-6.048,8.907
			c-0.77-6.519-6.049-16.695-6.049-16.695c-2.334,6.326-13.236,15.211-13.236,15.211c-0.743-3.141-6.579-11.101-6.579-11.101
			c-2.997,6.003-21.517,15.342-21.517,15.342c0.446-5.88-4.79-19.069-4.79-19.069c-0.08,5.617-6.559,17.941-6.559,17.941
			c0.255-3.36-2.794-8.852-2.794-8.852c-0.276,3.64-5.879,8.981-5.879,8.981c-0.892-6.508-6.363-16.618-6.363-16.618
			c-2.215,6.353-12.949,15.373-12.949,15.373c-0.802-3.131-6.787-11.018-6.787-11.018c-2.884,6.039-14.244,14.076-14.244,14.076
			c0.446-5.88-4.79-19.069-4.79-19.069c-0.08,5.617-6.559,17.94-6.559,17.94c0.255-3.36-2.794-8.852-2.794-8.852
			c-0.276,3.64-5.879,8.981-5.879,8.981c-0.892-6.508-6.363-16.618-6.363-16.618c-2.215,6.354-12.949,15.373-12.949,15.373
			c-0.802-3.132-6.788-11.018-6.788-11.018c-2.884,6.039-19.024,13.961-19.024,13.961c0-5.891-6.226-18.794-6.226-18.794
			c0.346,5.61-5.188,18.233-5.188,18.233c0-3.366-3.459-8.696-3.459-8.696c0,3.647-5.188,9.257-5.188,9.257
			c-1.383-6.452-7.609-16.27-7.609-16.27c-1.729,6.452-11.76,15.989-11.76,15.989c-1.038-3.086-7.609-10.66-7.609-10.66
			c-2.421,6.171-13.151,14.759-13.151,14.759c0-5.891-6.226-18.795-6.226-18.795c0.346,5.61-5.188,18.234-5.188,18.234
			c0-3.366-3.459-8.696-3.459-8.696c0,3.647-5.188,9.257-5.188,9.257c-1.383-6.452-7.609-16.27-7.609-16.27
			c-1.729,6.452-11.76,15.989-11.76,15.989c-1.038-3.086-7.609-10.66-7.609-10.66C9.562,343.001,0,351.358,0,351.358V500H500z"/>
		<g>
			<defs>
				<rect id="SVGID_1_" width="500" height="274.848"/>
			</defs>
			<clipPath id="SVGID_00000132076350915414575180000007788767932596819341_">
				<use xlink:href="#SVGID_1_"  style="overflow:visible;"/>
			</clipPath>
			<g style="clip-path:url(#SVGID_00000132076350915414575180000007788767932596819341_);">
				<path style="fill:#FFF9F3;" d="M378.215,167.169h83.715c0,0,0.819-5.526-4.094-4.912c0,0-0.819-8.187-10.439-6.14
					c0,0,2.456-15.761-17.398-13.509c0,0-5.936-9.62-14.123-7.573c-8.187,2.047-12.076,12.69-12.076,12.69
					s-12.281-1.637-13.304,11.462C390.496,159.186,379.238,158.163,378.215,167.169z"/>
				<path style="fill:#FFF9F3;" d="M-41.705,155.314H72.76c0,0,1.119-4.976-5.597-4.423c0,0-1.119-7.372-14.273-5.529
					c0,0,3.358-14.191-23.788-12.164c0,0-8.116-8.662-19.311-6.819c-11.195,1.843-16.512,11.427-16.512,11.427
					s-16.792-1.474-18.191,10.321C-24.913,148.126-40.305,147.205-41.705,155.314z"/>
				<path style="fill:#FFF9F3;" d="M74.657,51.434h82.199c0,0,0.804-3.573-4.019-3.176c0,0-0.804-5.294-10.25-3.97
					c0,0,2.412-10.191-17.083-8.735c0,0-5.828-6.22-13.867-4.897c-8.039,1.323-11.857,8.206-11.857,8.206
					s-12.058-1.059-13.063,7.411C86.716,46.273,75.662,45.611,74.657,51.434z"/>
				<path style="fill:#FFF9F3;" d="M224.267,85.494h197.778c0,0,1.934-8.598-9.671-7.642c0,0-1.934-12.738-24.662-9.553
					c0,0,5.803-24.52-41.103-21.017c0,0-14.023-14.967-33.366-11.782c-19.342,3.184-28.53,19.743-28.53,19.743
					s-29.014-2.548-31.432,17.833C253.281,73.075,226.685,71.483,224.267,85.494z"/>
				<path style="fill:#FFF9F3;" d="M103.789,223.531c0.699-9.948-9.085-8.704-9.085-8.704s-2.656-8.083-8.246-9.637
					c-5.591-1.554-9.644,5.751-9.644,5.751c-13.557-1.71-11.891,7.883-11.891,7.883c-6.569-1.554-6.728,4.857-6.728,4.857
					L103.789,223.531z"/>
				<path style="fill:#FFF9F3;" d="M485.212,52.333c0.553-7.867-7.185-6.883-7.185-6.883s-2.1-6.392-6.521-7.621
					c-4.421-1.229-7.627,4.548-7.627,4.548c-10.722-1.352-9.404,6.234-9.404,6.234c-5.195-1.229-5.321,3.841-5.321,3.841
					L485.212,52.333z"/>
			</g>
		</g>
	</g>
	<g>
		<g>
			<path style="fill:none;stroke:#0D3A4A;stroke-width:0.5;stroke-linecap:round;stroke-linejoin:round;stroke-miterlimit:10;" d="
				M451.397,424.421c0,0,16.515-45.11,13.896-78.773"/>
			<path style="fill:#0D3A4A;" d="M464.184,373.414c0,0-0.385-5.234,6.108-10.241c6.493-5.007,13.961-17.528,13.961-17.528
				S477.72,380.746,464.184,373.414z"/>
			<path style="fill:#0D3A4A;" d="M465.344,346.586c0,0-1.91-4.888,2.82-11.586c4.73-6.698,8.177-20.863,8.177-20.863
				S480.439,349.605,465.344,346.586z"/>
			<path style="fill:#0D3A4A;" d="M459.165,399.573c0,0-0.385-5.234,6.108-10.241c6.493-5.007,13.961-17.528,13.961-17.528
				S472.701,406.904,459.165,399.573z"/>
			<path style="fill:#0D3A4A;" d="M461.767,386.996c0,0,1.546-5.015-3.662-11.348c-5.208-6.333-9.686-20.207-9.686-20.207
				S446.934,391.113,461.767,386.996z"/>
			<path style="fill:#0D3A4A;" d="M465.215,362.074c0,0,1.546-5.015-3.662-11.348c-5.208-6.332-9.686-20.207-9.686-20.207
				S450.382,366.192,465.215,362.074z"/>
		</g>
		<g>
			<path style="fill:#FF9D6C;" d="M198.26,147.345c0,0-7.968,15.833-5.309,30.723c0,0-15.953,31.906-10.104,57.431
				c0,0-17.548,26.588-17.017,44.669c0.532,18.08-6.913,41.478-6.913,41.478s3.722,11.167,13.826,12.231
				c0,0,28.224-55.304,35.383-83.488c0,0,20.453-34.565,25.239-53.177c0,0,13.826-31.374,10.635-43.605
				C240.811,141.376,203.994,126.187,198.26,147.345z"/>
			<g>
				<path style="fill:#0D3A4A;" d="M92.02,216.408c0,0,73.911-30.183,114.563-131.467C206.583,84.941,114.496,103.564,92.02,216.408
					z"/>
				<g>
					<g>
						<g>
							<path style="fill:#FF9D6C;" d="M156.233,192.441c12.762,2.026,24.947-6.355,25.458-18.939l-0.142-2.074l21.712-8.685
								c0,0,6.928-9.39,8.67-24.043c1.718-14.45-3.455-25.473-3.455-25.473l-38.99,9.639c0,0,5.331-11.158-10.828-14.133
								c-14.717-2.709-10.073,9.298-10.073,9.298l-9.429-1.345c-9.056-1.757-20.998,2.139-25.396,16.584l-6.103,19.307
								C107.657,152.577,98.201,183.229,156.233,192.441z"/>
							
								<path style="fill:none;stroke:#0D3A4A;stroke-width:0.5;stroke-linecap:round;stroke-linejoin:round;stroke-miterlimit:10;" d="
								M156.269,118.635c0,0,1.389,2.574,2.944,0.869c3.316-3.636,2.864,2.402,4.858,1.517"/>
							
								<path style="fill:none;stroke:#0D3A4A;stroke-width:0.5;stroke-linecap:round;stroke-linejoin:round;stroke-miterlimit:10;" d="
								M152.32,114.808c0,0-2.352-5.295,7.938-2.179"/>
							<path style="fill:#0D3A4A;" d="M192.713,166.962l-11.164,4.466l-2.883-28.873
								C178.665,142.555,190.283,149.658,192.713,166.962z"/>
							<path style="fill:#0D3A4A;" d="M132.202,159.205c0.214-0.809,0.509-1.968,0.846-2.958c0.331-1.03,0.702-2.064,1.142-3.081
								c0.439-1.017,0.928-2.025,1.435-3.059c0.485-1.055,1.044-2.083,1.512-3.297l0.01-0.027c0.114-0.295-0.033-0.626-0.328-0.74
								c-0.142-0.055-0.294-0.049-0.424,0.005c-1.23,0.508-2.326,1.25-3.287,2.135c-0.993,0.865-1.781,1.922-2.527,3.009
								c-0.735,1.098-1.337,2.288-1.825,3.532c-0.468,1.288-0.826,2.473-0.925,4.063c-0.074,1.206,0.843,2.243,2.048,2.318
								c1.059,0.065,1.988-0.634,2.249-1.621L132.202,159.205z"/>
							<g>
								<defs>
									<path id="SVGID_00000183226135587424985510000011585504004453671308_" d="M118.659,178.66c0,0,4.507,3.763,10.298,6.09
										c0,0,2.763-9.673-1.183-12.043C127.774,172.706,121.47,174.019,118.659,178.66z"/>
								</defs>
								<clipPath id="SVGID_00000059302478037905354470000001323585895708252589_">
									<use xlink:href="#SVGID_00000183226135587424985510000011585504004453671308_"  style="overflow:visible;"/>
								</clipPath>
								<path style="clip-path:url(#SVGID_00000059302478037905354470000001323585895708252589_);fill:#0D3A4A;" d="
									M123.471,175.143c-0.689,0.962-1.015,1.776-1.322,2.73c-0.276,0.932-0.428,1.901-0.453,2.876
									c-0.023,0.971,0.044,1.954,0.355,2.886c0.279,0.931,0.769,1.81,1.482,2.516c0.239,0.237,0.624,0.235,0.86-0.003
									c0.067-0.068,0.115-0.147,0.144-0.231l0.019-0.056c0.308-0.913,0.443-1.677,0.657-2.421
									c0.192-0.735,0.337-1.433,0.556-2.116c0.206-0.681,0.434-1.348,0.696-1.999c0.227-0.629,0.565-1.36,0.721-1.842l0.129-0.401
									c0.37-1.145-0.259-2.373-1.404-2.743C124.988,174.04,124.008,174.395,123.471,175.143z"/>
							</g>
							<g>
								<defs>
									<path id="SVGID_00000050627985512281815030000003106428000010708619_" d="M128.624,184.654c0,0,7.867,3.868,15.405,5.21
										c0,0,3.225-3.234,0.758-7.676c-1.082-1.948-3.229-3.822-7.744-6.538C137.044,175.65,131.084,177.568,128.624,184.654z"/>
								</defs>
								<clipPath id="SVGID_00000038412862333417046960000009780139426711280535_">
									<use xlink:href="#SVGID_00000050627985512281815030000003106428000010708619_"  style="overflow:visible;"/>
								</clipPath>
								<g style="clip-path:url(#SVGID_00000038412862333417046960000009780139426711280535_);">
									<path style="fill:#FFFFFF;" d="M139.842,175.402c0,0-14.374,7.073-5.203,20.19c0,0,6.706-1.412,9.171-7.916
										C146.274,181.173,139.842,175.402,139.842,175.402z"/>
									<g>
										<g>
											<defs>
												<path id="SVGID_00000123433507648272633390000003571694902261993605_" d="M139.842,175.402
													c0,0-14.374,7.073-5.203,20.19c0,0,6.706-1.412,9.171-7.916C146.274,181.173,139.842,175.402,139.842,175.402z"/>
											</defs>
											<clipPath id="SVGID_00000039114909173631001340000004437054266690961281_">
												<use xlink:href="#SVGID_00000123433507648272633390000003571694902261993605_"  style="overflow:visible;"/>
											</clipPath>
											<path style="clip-path:url(#SVGID_00000039114909173631001340000004437054266690961281_);fill:#0D3A4A;" d="
												M135.465,192.781c3.482,1.155,7.241-0.731,8.396-4.213c1.155-3.482-0.731-7.241-4.213-8.396
												c-3.482-1.155-7.241,0.731-8.396,4.213C130.096,187.867,131.983,191.626,135.465,192.781z"/>
										</g>
									</g>
									<g>
										<path style="fill:#0D3A4A;" d="M134.235,195.7c-1.581-1.452-2.777-3.28-3.544-5.337c-0.772-2.046-0.976-4.412-0.364-6.619
											c0.31-1.095,0.792-2.141,1.419-3.07c0.659-0.902,1.365-1.77,2.218-2.453c1.648-1.434,3.56-2.449,5.553-3.123
											c0.14-0.047,0.293,0.028,0.34,0.168c0.039,0.114-0.006,0.237-0.098,0.305c-1.678,1.21-3.291,2.439-4.628,3.872
											c-1.337,1.422-2.4,3.04-2.882,4.833c-0.519,1.782-0.442,3.711,0.028,5.595c0.48,1.881,1.314,3.742,2.356,5.478
											l0.011,0.018c0.076,0.126,0.035,0.29-0.091,0.366C134.448,195.794,134.319,195.778,134.235,195.7z"/>
									</g>
								</g>
							</g>
							<g>
								<path style="fill:#FFFFFF;" d="M147.462,148.785c0,0-14.374,7.073-5.204,20.19c0,0,6.707-1.412,9.171-7.916
									C153.894,154.556,147.462,148.785,147.462,148.785z"/>
								<g>
									<g>
										<defs>
											<path id="SVGID_00000128469332183068723160000010705885836333956785_" d="M147.462,148.785c0,0-14.374,7.073-5.204,20.19
												c0,0,6.707-1.412,9.171-7.916C153.894,154.556,147.462,148.785,147.462,148.785z"/>
										</defs>
										<clipPath id="SVGID_00000021825104373305067900000015281154352547635353_">
											<use xlink:href="#SVGID_00000128469332183068723160000010705885836333956785_"  style="overflow:visible;"/>
										</clipPath>
										<path style="clip-path:url(#SVGID_00000021825104373305067900000015281154352547635353_);fill:#0D3A4A;" d="
											M142.165,169.067c3.482,1.155,7.241-0.731,8.396-4.213c1.155-3.482-0.731-7.241-4.213-8.396
											c-3.482-1.155-7.241,0.731-8.396,4.213C136.796,164.152,138.683,167.912,142.165,169.067z"/>
									</g>
								</g>
								<g>
									<path style="fill:#0D3A4A;" d="M141.902,169.043c-1.606-1.438-2.844-3.257-3.661-5.31c-0.82-2.04-1.094-4.426-0.495-6.67
										c0.571-2.258,2.013-4.181,3.713-5.566c1.701-1.412,3.67-2.37,5.712-2.964c0.109-0.032,0.224,0.031,0.256,0.141
										c0.025,0.087-0.011,0.178-0.081,0.227c-1.717,1.208-3.37,2.421-4.742,3.844c-1.378,1.406-2.459,3.027-2.941,4.831
										c-0.507,1.798-0.396,3.749,0.105,5.653c0.51,1.903,1.374,3.777,2.439,5.543l0.008,0.013
										c0.058,0.097,0.027,0.223-0.07,0.281C142.065,169.113,141.967,169.101,141.902,169.043z"/>
								</g>
								
									<path style="fill:none;stroke:#300606;stroke-width:0.75;stroke-linecap:round;stroke-linejoin:round;stroke-miterlimit:10;" d="
									M147.462,148.785"/>
							</g>
							<g>
								
									<path style="fill:none;stroke:#0D3A4A;stroke-width:0.5;stroke-linecap:round;stroke-linejoin:round;stroke-miterlimit:10;" d="
									M135.993,175.139c7.416,3.452,8.923,7.301,8.923,7.301s1.014,2.251,3.096,1.996c2.082-0.256,1.477-1.663,3.038-2.954"/>
								
									<path style="fill:none;stroke:#0D3A4A;stroke-width:0.5;stroke-linecap:round;stroke-linejoin:round;stroke-miterlimit:10;" d="
									M150.944,177.048c0,0-0.029-0.314,0.19-0.795c0.219-0.481,0.819-0.705,0.819-0.705"/>
								
									<path style="fill:none;stroke:#0D3A4A;stroke-width:0.5;stroke-linecap:round;stroke-linejoin:round;stroke-miterlimit:10;" d="
									M148.06,172.399c0,0,2.432-2.185,4.979,0.822"/>
							</g>
							<g>
								<path style="fill:#0D3A4A;" d="M156.82,186.163c0,0,2.109-7.105,2.694-18.092c0,0,12.64,0.904,11.268,10.919
									C169.752,186.509,156.82,186.163,156.82,186.163z"/>
								<path style="fill:#EA645E;" d="M165.324,169.623c0,0-2,9.91,3.593,13.004c0,0,3.335-2.79,1.779-7.629
									C170.696,174.998,169.534,171.246,165.324,169.623z"/>
								<path style="fill:#FFFFFF;" d="M156.82,186.163c0,0,8.322-6.082,2.694-18.092L156.82,186.163z"/>
							</g>
						</g>
					</g>
				</g>
				<path style="fill:#FFC834;" d="M92.02,216.408c0,0,33.918-80.115,114.563-131.467c0,0-63.573,2.734-106.719,21.743
					C99.865,106.684,88.224,157.63,92.02,216.408z"/>
				<path style="fill:none;stroke:#0D3A4A;stroke-width:0.5;stroke-linecap:round;stroke-linejoin:round;stroke-miterlimit:10;" d="
					M119.266,169.638c0,0,28.042-40.862,62.692-67.098"/>
				<path style="fill:none;stroke:#0D3A4A;stroke-width:0.5;stroke-linecap:round;stroke-linejoin:round;stroke-miterlimit:10;" d="
					M100.12,171.428c0,0,20.894-44.065,63.951-70.935"/>
				<path style="fill:none;stroke:#0D3A4A;stroke-width:0.5;stroke-linecap:round;stroke-linejoin:round;stroke-miterlimit:10;" d="
					M109.433,133.98c0,0,18.181-21.507,36.284-34.328"/>
				<path style="fill:none;stroke:#0D3A4A;stroke-width:0.5;stroke-linecap:round;stroke-linejoin:round;stroke-miterlimit:10;" d="
					M118.659,110.199c0,0,20.98-2.724,39.998-1.465"/>
				<path style="fill:none;stroke:#0D3A4A;stroke-width:0.5;stroke-linecap:round;stroke-linejoin:round;stroke-miterlimit:10;" d="
					M124.278,126.122c0,0,10.384,0.827,15.967,1.654"/>
			</g>
			<g>
				<path style="fill:#FF9D6C;" d="M208.475,113.228c0,0,66.16-28.287,111.957,32.777c0,0,39.638,33.302,52.624,46.739
					c0,0-19.844,37.777-41.631,38.025s-51.275-37.146-55.839-38.025c-4.564-0.879-77.501,10.936-82.873-25.781
					C187.341,130.245,193.854,123.597,208.475,113.228z"/>
				<path style="fill:none;stroke:#0D3A4A;stroke-width:0.5;stroke-linecap:round;stroke-linejoin:round;stroke-miterlimit:10;" d="
					M192.713,166.962c0,0,6.022,24.624,53.573,26.901"/>
				<path style="fill:none;stroke:#0D3A4A;stroke-width:0.5;stroke-linecap:round;stroke-linejoin:round;stroke-miterlimit:10;" d="
					M316.983,141.624c0,0,6.17,7.308,6.919,14.047"/>
				<path style="fill:none;stroke:#0D3A4A;stroke-width:0.5;stroke-linecap:round;stroke-linejoin:round;stroke-miterlimit:10;" d="
					M279.845,171.428c0,0,13.715,5.461,28.025,8.369c14.311,2.908,20.274,16.622,20.274,16.622"/>
				<path style="fill:none;stroke:#0D3A4A;stroke-width:0.5;stroke-linecap:round;stroke-linejoin:round;stroke-miterlimit:10;" d="
					M212.28,166.962c0,0,6.177,10.086,19.167,14.274"/>
				<path style="fill:none;stroke:#0D3A4A;stroke-width:0.5;stroke-linecap:round;stroke-linejoin:round;stroke-miterlimit:10;" d="
					M198.817,135.736c0,0,0.304,13.417-0.578,18.554c-0.882,5.137,2.688,7.409,2.688,7.409"/>
			</g>
			<g>
				<g>
					<path style="fill:#FF9D6C;" d="M223.585,341.406l34.241,96.169c0,0,17.884,0.918,28.817,0c0,0-7.725-40.673-7.725-47.88
						c0-7.208-1.363-34.894-4.372-66.192C271.536,292.204,218.367,326.753,223.585,341.406z"/>
					<path style="fill:#FF9D6C;" d="M364.761,346.679l50.295,92.152c0,0,18.567,1.758,29.224-0.848c0,0-16.234-45.082-17.354-52.202
						c-1.12-7.12-6.77-34.259-14.607-64.708C404.483,290.623,357.33,333.015,364.761,346.679z"/>
					<path style="fill:#0D3A4A;" d="M249.717,346.827c0,0,18.023,6.985,27.935,15.485c0,0-0.352-9.098-1.22-17.131
						C276.431,345.18,265.048,342.889,249.717,346.827z"/>
					<path style="fill:#0D3A4A;" d="M398.716,358.848c0,0,14.187,10.638,26.887,19.017c0,0-1.062-7.746-3.195-14.478
						C422.408,363.387,413.549,362.064,398.716,358.848z"/>
				</g>
				<path style="fill:#EA645E;" d="M364.921,184.589c0,0-33.867,25.315-66.872,27.854c0,0-30.622,22.924-83.939,97.569
					c0,0-6.601,13.71,3.047,34.529c9.648,20.819,33.514-12.187,78.199,5.586c0,0,8.291,4.203,9.666-16.371
					c0.904-13.518,20.453-35.054,20.453-35.054s11.475,33.219,20.616,50.483c9.14,17.265,13.528,2.046,52.627,9.663
					c39.099,7.617,78.737,18.98,40.146-42.462c-38.592-61.442-16.145-21.611-36.873-92.698
					C398.302,211.042,377.616,188.144,364.921,184.589z"/>
				<path style="fill:none;stroke:#0D3A4A;stroke-width:0.5;stroke-linecap:round;stroke-linejoin:round;stroke-miterlimit:10;" d="
					M341.427,339.531c0,0-13.542-33.594-18.629-47.659c-5.087-14.065,2.993-47.206,2.993-47.206"/>
				<path style="fill:#FFC834;" d="M298.049,212.443c0,0,14.3,4.416,30.479,0c16.179-4.416,78.254,28.546,78.254,28.546
					s2.897,33.025,13.936,46.595l11.498,18.257l17.312,29.689h8.15c3.584,0,5.832-3.867,4.048-6.975
					c-3.638-6.34-8.918-17.235-13.8-33.625c-8.567-28.759-38.121-127.673-83.004-110.341
					C364.921,184.589,333.951,207.028,298.049,212.443z"/>
				<path style="fill:none;stroke:#0D3A4A;stroke-width:0.5;stroke-linecap:round;stroke-linejoin:round;stroke-miterlimit:10;" d="
					M298.049,212.443c0,0,12.355,4.184,30.479,0c0,0,4.758-3.86,37.159,9.204"/>
				<path style="fill:none;stroke:#0D3A4A;stroke-width:0.5;stroke-linecap:round;stroke-linejoin:round;stroke-miterlimit:10;" d="
					M391.862,233.465c0,0,15.191,7.144,22.224,12.194"/>
				<path style="fill:none;stroke:#0D3A4A;stroke-width:0.5;stroke-linecap:round;stroke-linejoin:round;stroke-miterlimit:10;" d="
					M418.484,283.934c0,0,24.201,37.877,32.785,55.598"/>
				<path style="fill:none;stroke:#0D3A4A;stroke-width:0.5;stroke-linecap:round;stroke-linejoin:round;stroke-miterlimit:10;" d="
					M346.089,349.185c0,0,20.38-11.184,45.773-7.907c25.393,3.277,48.135,8.851,62.364,7.907"/>
				<path style="fill:none;stroke:#0D3A4A;stroke-width:0.5;stroke-linecap:round;stroke-linejoin:round;stroke-miterlimit:10;" d="
					M305.021,333.755c0,0-39.283-10.179-91.115,2.153"/>
				<path style="fill:#0D3A4A;" d="M393.16,234.086c0,0,9.363,13.675,16.878,27.074c0,0-1.333-6.838-3.257-20.171
					C406.781,240.989,396.772,235.421,393.16,234.086z"/>
				<path style="fill:none;stroke:#0D3A4A;stroke-width:0.5;stroke-linecap:round;stroke-linejoin:round;stroke-miterlimit:10;" d="
					M305.021,211.579c0,0,33.21-8.264,59.9-26.99"/>
				<path style="fill:#0D3A4A;" d="M316.198,310.304c0,0,3.791-17.467,5.469-23.037c0,0,0.287,3.575,3.806,11.435
					C325.474,298.702,319.827,306.25,316.198,310.304z"/>
			</g>
			<g>
				<path style="fill:#FF9D6C;" d="M160.307,320.566c0,0-16.935,7.439-20.371,30.25c-3.436,22.811,11.805,31.814,11.805,31.814
					s3.658,1.05,3.744-4.131c0.086-5.181-5.169-11.572-6.011-12.317c-0.841-0.746,1.348-13.19,1.817-16.587
					c0.469-3.397,5.196,7.956,4.749,11.199c-0.448,3.243-4.533,15.74,1.186,17.631c5.719,1.891,7.818-6.474,8.122-12.097
					s8.873-15.068,9.228-29.14C174.931,323.116,163.154,320.27,160.307,320.566z"/>
				<g>
					
						<path style="fill:none;stroke:#0D3A4A;stroke-width:0.5;stroke-linecap:round;stroke-linejoin:round;stroke-miterlimit:10;" d="
						M159.683,393.46c0,0-9.753-51.593-31.058-81.728"/>
					<path style="fill:#0D3A4A;" d="M143.129,338.418c0,0-3.292-4.697,0-13.033c3.292-8.336,3.292-24.271,3.292-24.271
						S159.94,337.723,143.129,338.418z"/>
					<path style="fill:#0D3A4A;" d="M129.197,312.585c0,0-4.53-3.519-3.84-12.455c0.69-8.935-4.005-24.164-4.005-24.164
						S145.057,306.967,129.197,312.585z"/>
					<path style="fill:#0D3A4A;" d="M153.063,365.785c0,0-3.292-4.697,0-13.033c3.292-8.336,3.292-24.271,3.292-24.271
						S169.874,365.089,153.063,365.785z"/>
					<path style="fill:#0D3A4A;" d="M148.463,352.522c0,0-1.356-5.574-9.791-8.602c-8.435-3.029-20.406-13.547-20.406-13.547
						S136.844,364.692,148.463,352.522z"/>
					<path style="fill:#0D3A4A;" d="M137.748,327.196c0,0-1.356-5.574-9.791-8.602c-8.435-3.029-20.406-13.547-20.406-13.547
						S126.129,339.366,137.748,327.196z"/>
				</g>
				<path style="fill:#FF9D6C;" d="M154.801,366.807c0,0-2.592,10.668,2.425,11.618
					C162.243,379.374,154.801,366.807,154.801,366.807z"/>
				<path style="fill:none;stroke:#0D3A4A;stroke-width:0.5;stroke-linecap:round;stroke-linejoin:round;stroke-miterlimit:10;" d="
					M156.111,371.14c0,0-0.528,4.279,1.407,4.806c1.934,0.528,4.572-0.645,4.572-2.403
					C162.09,371.785,160.683,371.55,156.111,371.14z"/>
			</g>
			<g>
				<path style="fill:none;stroke:#0D3A4A;stroke-width:0.5;stroke-linecap:round;stroke-linejoin:round;stroke-miterlimit:10;" d="
					M217.776,247.651c0,0-42.423-21.786-75.907-23.321"/>
				<path style="fill:#0D3A4A;" d="M169.089,228.817c0,0-5.203-0.26-9.342-7.269c-4.139-7.009-15.562-15.897-15.562-15.897
					S177.967,216.378,169.089,228.817z"/>
				<path style="fill:#0D3A4A;" d="M142.8,224.395c0,0-5.049,1.284-11.069-4.194c-6.02-5.479-19.555-10.607-19.555-10.607
					S147.619,209.893,142.8,224.395z"/>
				<path style="fill:#0D3A4A;" d="M194.247,236.961c0,0-5.203-0.26-9.342-7.269c-4.139-7.009-15.562-15.897-15.562-15.897
					S203.124,224.522,194.247,236.961z"/>
				<path style="fill:#0D3A4A;" d="M182.173,232.86c0,0-4.752-2.137-11.627,2.22c-6.875,4.357-21.092,7.072-21.092,7.072
					S184.417,247.976,182.173,232.86z"/>
				<path style="fill:#0D3A4A;" d="M158.043,226.415c0,0-4.752-2.137-11.627,2.22c-6.876,4.357-21.092,7.072-21.092,7.072
					S160.286,241.532,158.043,226.415z"/>
			</g>
			<g>
				<path style="fill:#FF9D6C;" d="M232.558,166.773c2.694,1.301,5.721,2.493,9.121,3.518c0,0,9.19,16.63,23.632,24.07
					c0,0-16.63,3.939-33.26,20.569c-16.63,16.63-22.757,19.256-22.757,19.256s2.626,11.816,10.941,15.755
					c0,0,66.958-21.882,90.153-40.7c0,0,3.939-26.756-21.007-61.518c0,0-34.136-40.014-52.516-28.635
					c-3.228,1.998-6.118,4.023-8.69,6.004C213.581,136.332,215.971,158.762,232.558,166.773z"/>
				<path style="fill:none;stroke:#0D3A4A;stroke-width:0.5;stroke-linecap:round;stroke-linejoin:round;stroke-miterlimit:10;" d="
					M229.032,246.94c0,0,48.271-15.649,75.287-33.321c4.101-2.682,6.477-7.328,6.189-12.219
					c-0.613-10.404-4.293-30.218-21.127-53.677c0,0-34.136-40.014-52.516-28.635"/>
				<path style="fill:none;stroke:#0D3A4A;stroke-width:0.5;stroke-linecap:round;stroke-linejoin:round;stroke-miterlimit:10;" d="
					M232.558,166.773c2.694,1.301,5.721,2.493,9.121,3.518c0,0,9.19,16.63,23.632,24.07c0,0-16.63,3.939-33.26,20.569
					c-16.63,16.63-17.05,15.431-17.05,15.431"/>
			</g>
			<g>
				<path style="fill:#FF9D6C;" d="M213.297,231.615c0,0-8.445-6.89-13.575-4.546c-2.275,1.04-7.82,5.215-7.663,6.942
					c0.245,2.703,2.112,2.557,2.112,2.557c-3.079,1.507-11.886,4.364-8.733,11.194c0,0,0.747,1.818,2.704,2.165
					c0,0-1.484,2.582,0.209,4.777c1.693,2.195,4.737,1.254,4.737,1.254s-2.634,1.359-1.326,3.467
					c1.307,2.109,3.335,3.865,5.719,2.697c0,0-0.052,4.309,4.535,4.225c2.049-0.038,6.925-0.181,10.577-3.2
					c5.103-4.218,9.317-13.942,9.317-13.942S224.536,240.433,213.297,231.615z"/>
				<path style="fill:none;stroke:#0D3A4A;stroke-width:0.5;stroke-linecap:round;stroke-linejoin:round;stroke-miterlimit:10;" d="
					M199.514,246.644c-5.32,2.552-10.733,3.007-10.733,3.007s-4.162,6.126,4.306,6.307"/>
				<path style="fill:none;stroke:#0D3A4A;stroke-width:0.5;stroke-linecap:round;stroke-linejoin:round;stroke-miterlimit:10;" d="
					M203.483,253.241c-5.32,2.552-10.732,3.008-10.732,3.008s-4.217,4.511,4.038,6.057c0,0,5.413-0.456,10.733-3.008"/>
				<path style="fill:none;stroke:#0D3A4A;stroke-width:0.5;stroke-linecap:round;stroke-linejoin:round;stroke-miterlimit:10;" d="
					M202.634,234.179c-5.278,0.655-10.955,3.523-10.955,3.523s-8.453,3.011-6.756,8.568c1.372,4.494,4.75,3.276,4.75,3.276"/>
				<path style="fill:none;stroke:#0D3A4A;stroke-width:0.5;stroke-linecap:round;stroke-linejoin:round;stroke-miterlimit:10;" d="
					M197.604,263.101c2.78,7.145,14.989,0.047,14.989,0.047s2.598-1.945,5.272-6.149"/>
				<path style="fill:none;stroke:#0D3A4A;stroke-width:0.5;stroke-linecap:round;stroke-linejoin:round;stroke-miterlimit:10;" d="
					M193.121,236.245c0,0-2.235-1.732-0.503-3.575c1.732-1.842,7.297-9.743,16.292-3.949c0,0,3.063,1.8,4.386,2.894"/>
				<path style="fill:#0D3A4A;" d="M195.146,229.964c0,0,1.98,3.799,1.583,5.658c0,0-3.045,1.197-3.605,1.554
					C193.123,237.176,186.321,231.969,195.146,229.964z"/>
			</g>
		</g>
		<g>
			<path style="fill:none;stroke:#0D3A4A;stroke-width:0.5;stroke-linecap:round;stroke-linejoin:round;stroke-miterlimit:10;" d="
				M54.391,435.638c0,0,3.262-47.927-8.653-79.519"/>
			<path style="fill:#0D3A4A;" d="M52.427,383.09c0,0-1.831-4.918,3.005-11.539s8.511-20.729,8.511-20.729
				S67.471,386.35,52.427,383.09z"/>
			<path style="fill:#0D3A4A;" d="M46.049,357.006c0,0-3.199-4.16-0.528-11.912c2.671-7.752,2.026-22.317,2.026-22.317
				S61.386,355.689,46.049,357.006z"/>
			<path style="fill:#0D3A4A;" d="M54.911,409.61c0,0-1.831-4.918,3.005-11.539c4.837-6.621,8.511-20.729,8.511-20.729
				S69.956,412.87,54.911,409.61z"/>
			<path style="fill:#0D3A4A;" d="M53.897,396.806c0,0,0.084-5.247-6.685-9.874c-6.769-4.626-14.943-16.699-14.943-16.699
				S40.804,404.902,53.897,396.806z"/>
			<path style="fill:#0D3A4A;" d="M50.25,371.914c0,0,0.084-5.247-6.685-9.874c-6.769-4.626-14.943-16.699-14.943-16.699
				S37.157,380.009,50.25,371.914z"/>
		</g>
		<g>
			<path style="fill:none;stroke:#0D3A4A;stroke-width:0.5;stroke-linecap:round;stroke-linejoin:round;stroke-miterlimit:10;" d="
				M341.067,479.562c0,0,16.515-45.11,13.896-78.773"/>
			<path style="fill:#0D3A4A;" d="M353.854,428.556c0,0-0.385-5.234,6.108-10.241c6.493-5.007,13.961-17.528,13.961-17.528
				S367.389,435.887,353.854,428.556z"/>
			<path style="fill:#0D3A4A;" d="M355.013,401.728c0,0-1.91-4.888,2.82-11.586c4.73-6.698,8.177-20.863,8.177-20.863
				S370.108,404.746,355.013,401.728z"/>
			<path style="fill:#0D3A4A;" d="M348.834,454.715c0,0-0.385-5.234,6.108-10.241c6.493-5.007,13.961-17.528,13.961-17.528
				S362.37,462.046,348.834,454.715z"/>
			<path style="fill:#0D3A4A;" d="M351.436,442.137c0,0,1.546-5.015-3.662-11.347c-5.208-6.333-9.686-20.207-9.686-20.207
				S336.603,446.255,351.436,442.137z"/>
			<path style="fill:#0D3A4A;" d="M354.884,417.216c0,0,1.546-5.015-3.662-11.348c-5.208-6.332-9.686-20.207-9.686-20.207
				S340.052,421.334,354.884,417.216z"/>
		</g>
		<g>
			<path style="fill:none;stroke:#0D3A4A;stroke-width:0.5;stroke-linecap:round;stroke-linejoin:round;stroke-miterlimit:10;" d="
				M234.695,460.842c0,0-16.515-45.11-13.896-78.773"/>
			<path style="fill:#0D3A4A;" d="M221.908,409.836c0,0,0.385-5.234-6.108-10.241c-6.493-5.007-13.961-17.528-13.961-17.528
				S208.373,417.167,221.908,409.836z"/>
			<path style="fill:#0D3A4A;" d="M220.749,383.008c0,0,1.91-4.888-2.82-11.586c-4.73-6.698-8.177-20.863-8.177-20.863
				S205.654,386.026,220.749,383.008z"/>
			<path style="fill:#0D3A4A;" d="M226.928,435.995c0,0,0.385-5.234-6.108-10.241c-6.493-5.007-13.961-17.528-13.961-17.528
				S213.392,443.326,226.928,435.995z"/>
			<path style="fill:#0D3A4A;" d="M224.326,423.417c0,0-1.546-5.015,3.662-11.348c5.208-6.332,9.686-20.207,9.686-20.207
				S239.159,427.535,224.326,423.417z"/>
			<path style="fill:#0D3A4A;" d="M220.878,398.496c0,0-1.546-5.015,3.662-11.348c5.208-6.332,9.686-20.207,9.686-20.207
				S235.71,402.614,220.878,398.496z"/>
		</g>
		<g>
			<path style="fill:none;stroke:#0D3A4A;stroke-width:0.5;stroke-linecap:round;stroke-linejoin:round;stroke-miterlimit:10;" d="
				M108.877,477.89c0,0-3.306-47.924,8.581-79.527"/>
			<path style="fill:#0D3A4A;" d="M110.794,425.34c0,0,1.827-4.92-3.016-11.536c-4.843-6.616-8.53-20.722-8.53-20.722
				S95.752,428.614,110.794,425.34z"/>
			<path style="fill:#0D3A4A;" d="M117.148,399.25c0,0,3.195-4.163,0.517-11.913c-2.678-7.75-2.047-22.315-2.047-22.315
				S101.81,397.947,117.148,399.25z"/>
			<path style="fill:#0D3A4A;" d="M108.333,451.862c0,0,1.827-4.92-3.016-11.536c-4.843-6.616-8.53-20.722-8.53-20.722
				S93.292,455.136,108.333,451.862z"/>
			<path style="fill:#0D3A4A;" d="M109.336,439.057c0,0-0.089-5.247,6.676-9.88c6.765-4.632,14.928-16.712,14.928-16.712
				S122.436,447.141,109.336,439.057z"/>
			<path style="fill:#0D3A4A;" d="M112.96,414.161c0,0-0.089-5.247,6.676-9.88c6.765-4.632,14.928-16.712,14.928-16.712
				S126.061,422.245,112.96,414.161z"/>
		</g>
	</g>
	<g>
		<path style="fill:#239883;" d="M326.477,412.471c-1.911,7.036-11.172,17.025-11.172,17.025
			c-0.692-3.468-5.856-12.202-5.856-12.202c-2.488,6.688-16.414,15.461-16.414,15.461c0-6.524-5.372-20.814-5.372-20.814
			c0.298,6.213-4.477,20.192-4.477,20.192c0-3.728-2.984-9.63-2.984-9.63c0,4.038-4.476,10.252-4.476,10.252
			c-1.194-7.145-6.565-18.018-6.565-18.018c-1.492,7.145-10.147,17.707-10.147,17.707c-0.895-3.417-6.565-11.805-6.565-11.805
			c-2.089,6.834-11.347,16.344-11.347,16.344s-35.834,28.537,24.536,28.537s84.855,1.26,77.276-19.529
			C335.333,425.203,326.477,412.471,326.477,412.471z"/>
		<path style="fill:none;stroke:#0D3A4A;stroke-width:0.5;stroke-linecap:round;stroke-linejoin:round;stroke-miterlimit:10;" d="
			M315.305,429.496c-0.692-3.468-5.856-12.202-5.856-12.202c-2.488,6.688-16.414,15.461-16.414,15.461
			c0-6.524-5.372-20.814-5.372-20.814c0.298,6.213-4.477,20.192-4.477,20.192c0-3.728-2.984-9.63-2.984-9.63
			c0,4.038-4.476,10.252-4.476,10.252c-1.194-7.145-6.565-18.018-6.565-18.018c-1.492,7.145-10.147,17.707-10.147,17.707
			c-0.895-3.417-6.565-11.805-6.565-11.805"/>
		<path style="fill:#239883;" d="M451.918,412.471c-1.911,7.036-11.172,17.025-11.172,17.025
			c-0.692-3.468-5.857-12.202-5.857-12.202c-2.488,6.688-16.414,15.461-16.414,15.461c0-6.524-5.372-20.814-5.372-20.814
			c0.298,6.213-4.477,20.192-4.477,20.192c0-3.728-2.984-9.63-2.984-9.63c0,4.038-4.476,10.252-4.476,10.252
			c-1.194-7.145-6.565-18.018-6.565-18.018c-1.492,7.145-10.147,17.707-10.147,17.707c-0.895-3.417-6.565-11.805-6.565-11.805
			c-2.089,6.834-11.347,16.344-11.347,16.344s-35.834,28.537,24.536,28.537s84.855,1.26,77.276-19.529
			C460.774,425.203,451.918,412.471,451.918,412.471z"/>
		<path style="fill:none;stroke:#0D3A4A;stroke-width:0.5;stroke-linecap:round;stroke-linejoin:round;stroke-miterlimit:10;" d="
			M457.397,421.625c-3.216-5.901-5.478-9.154-5.478-9.154c-1.911,7.036-11.172,17.025-11.172,17.025
			c-0.692-3.468-5.857-12.202-5.857-12.202c-2.488,6.688-16.414,15.461-16.414,15.461c0-6.524-5.372-20.814-5.372-20.814
			c0.298,6.213-4.477,20.192-4.477,20.192c0-3.728-2.984-9.63-2.984-9.63c0,4.038-4.476,10.252-4.476,10.252
			c-1.194-7.145-6.565-18.018-6.565-18.018c-1.492,7.145-10.147,17.707-10.147,17.707"/>
	</g>
</g>
</svg>
